<?xml version="1.0" encoding="UTF-8"?>
<svg version="1.1" xmlns="http://www.w3.org/2000/svg" width="1024" height="1024">
<path d="M0 0 C27.70573306 -0.05788265 55.41143903 -0.09539065 83.11722946 -0.10889816 C86.7968387 -0.11073436 90.47644691 -0.11311652 94.15605545 -0.11603165 C163.89406609 -0.1711301 163.89406609 -0.1711301 196.35990906 0.45845795 C197.93351354 0.48758081 197.93351354 0.48758081 199.538908 0.51729202 C202.40853083 0.57253711 205.27787295 0.63497312 208.14726257 0.70113373 C208.9720492 0.71745472 209.79683582 0.73377571 210.64661598 0.75059128 C214.1730431 0.84220978 217.32602971 1.15740508 220.73100281 2.01314545 C222.60878975 2.10672287 224.48700459 2.19586536 226.36625671 2.25289154 C235.93940307 2.55541515 245.36774583 3.60494425 254.85600281 4.88814545 C256.08826599 5.04968109 257.32052917 5.21121674 258.59013367 5.3776474 C264.55416559 6.21364316 270.09581513 7.25537334 275.75395203 9.32564545 C278.84361151 10.4000442 282.02583673 10.94322115 285.23100281 11.57564545 C302.2676172 15.31343924 319.07258791 22.59808001 333.73100281 32.01314545 C334.75967468 32.6473642 335.78834656 33.28158295 336.84819031 33.93502045 C343.19138177 37.97012952 348.72826119 42.48506246 354.19975281 47.6342392 C356.40888622 49.7104155 358.66537093 51.68321777 360.98100281 53.63814545 C364.92597601 57.06962007 368.62699272 60.79363173 371.73100281 65.01314545 C371.73100281 65.67314545 371.73100281 66.33314545 371.73100281 67.01314545 C372.29432312 67.20650482 372.85764343 67.3998642 373.43803406 67.59908295 C376.69543429 69.60790558 378.3932479 72.48090699 380.41850281 75.63814545 C380.84913025 76.29750092 381.27975769 76.95685638 381.72343445 77.63619232 C387.77784203 87.02932184 393.47146118 96.66854435 397.73100281 107.01314545 C398.07002625 107.80978607 398.40904968 108.6064267 398.75834656 109.42720795 C406.00049934 127.0197336 409.92891803 145.30878581 412.40556335 164.09053802 C412.71619287 166.22448448 412.71619287 166.22448448 413.73100281 169.01314545 C416.59218478 188.91368029 416.01881481 209.10991245 415.99245214 229.16020167 C415.98788161 234.31300089 415.99493399 239.46578713 416.00041199 244.61858368 C416.00925923 254.68449921 416.00740487 264.75038474 416.00158671 274.8163014 C415.99705147 283.00494064 415.99646532 291.19357154 415.99863434 299.38221169 C415.9989408 300.55211881 415.99924727 301.72202593 415.99956302 302.92738478 C416.00020254 305.30478422 416.00085097 307.68218365 416.00150821 310.05958308 C416.00719789 332.30124264 416.00067517 354.54288566 415.98990747 376.78454251 C415.98097439 395.82535138 415.98252467 414.86613585 415.991745 433.90694427 C416.00247379 456.07291743 416.00664746 478.23887611 416.00052047 500.4048515 C415.99988344 502.77332214 415.9992547 505.14179279 415.99863434 507.51026344 C415.99832579 508.6752842 415.99801724 509.84030495 415.99769934 511.04062937 C415.99598012 519.20893071 415.99887075 527.37722279 416.00359344 535.54552269 C416.00923141 545.51504859 416.00762505 555.48454303 415.99703196 565.45406538 C415.99181403 570.53037816 415.9896514 575.6066387 415.99633026 580.68295097 C416.05817072 632.16425562 416.05817072 632.16425562 411.73100281 646.01314545 C411.44352662 647.57551601 411.1901858 649.1448971 410.98490906 650.7201767 C410.87147156 651.54936615 410.75803406 652.3785556 410.64115906 653.23287201 C410.5264325 654.08848724 410.41170593 654.94410248 410.29350281 655.82564545 C409.30542225 662.76993608 408.18410176 669.41161214 405.73100281 676.01314545 C405.49510437 676.65509857 405.25920593 677.2970517 405.01615906 677.95845795 C404.53470062 679.2440821 404.04510787 680.52668949 403.54740906 681.8061142 C402.16165439 685.55229308 400.99181972 689.37146503 399.79350281 693.1811142 C398.71386247 696.05883201 397.35129 698.40837996 395.73100281 701.01314545 C394.8206138 702.83929449 393.92558536 704.67315663 393.04350281 706.51314545 C387.47481424 717.69167053 380.88867566 727.56895788 372.73100281 737.01314545 C372.05295593 737.82525482 371.37490906 738.6373642 370.67631531 739.47408295 C367.1633899 743.62837233 367.1633899 743.62837233 365.73100281 745.01314545 C365.07100281 745.01314545 364.41100281 745.01314545 363.73100281 745.01314545 C363.52475281 745.57002045 363.31850281 746.12689545 363.10600281 746.70064545 C361.59536269 749.24126746 359.79242105 750.77822042 357.46147156 752.5717392 C355.56549813 754.10265513 355.56549813 754.10265513 353.38334656 756.3998642 C339.24696113 770.32805544 319.3853818 781.32155772 300.73100281 788.01314545 C299.87635437 788.3483017 299.02170593 788.68345795 298.14115906 789.02877045 C292.10825025 791.34845418 286.09680192 792.96695185 279.77397156 794.30220795 C276.72176297 794.96370666 276.72176297 794.96370666 273.79740906 796.00533295 C247.3125735 804.7099031 216.49030403 802.31422823 188.97207975 802.28925383 C183.79933113 802.28675528 178.62659952 802.29583915 173.45385742 802.30329132 C163.35338291 802.31595591 153.25293509 802.31784228 143.15245397 802.31549106 C134.92826645 802.31369797 126.70408693 802.31547862 118.47990036 802.3197155 C116.71483055 802.32060828 116.71483055 802.32060828 114.91410276 802.3215191 C112.52247597 802.32273104 110.13084918 802.32394517 107.73922239 802.32516148 C85.3741145 802.33600589 63.00902174 802.33388963 40.64391302 802.32777663 C20.26474296 802.32261371 -0.11437921 802.33385199 -20.4935398 802.35287485 C-41.50373181 802.37233375 -62.51390126 802.380495 -83.52410233 802.3767516 C-95.28553795 802.37485127 -107.04693287 802.37721159 -118.80836105 802.39146614 C-128.82463931 802.40348439 -138.84085184 802.40466981 -148.85713117 802.39267597 C-153.94928445 802.3868587 -159.04131817 802.38548426 -164.13346291 802.39767838 C-183.17062392 802.43998386 -202.10267604 802.23744035 -221.08494568 800.67737579 C-221.81474439 800.61909213 -222.5445431 800.56080846 -223.29645692 800.50075863 C-234.92256947 799.54432383 -246.20086451 797.78753741 -257.26899719 794.01314545 C-259.64099236 793.39728729 -262.01622933 792.79382533 -264.39399719 792.20064545 C-288.81734004 785.82647885 -311.69038775 771.89552554 -330.83149719 755.76314545 C-331.43977356 755.25565765 -332.04804993 754.74816986 -332.67475891 754.22530365 C-335.61833243 751.70087031 -337.75979925 749.60058317 -339.26899719 746.01314545 C-339.88774719 745.70377045 -340.50649719 745.39439545 -341.14399719 745.07564545 C-344.0400309 743.62762859 -345.43173156 741.63781064 -347.26899719 739.01314545 C-347.26899719 738.35314545 -347.26899719 737.69314545 -347.26899719 737.01314545 C-347.8323175 736.80947357 -348.39563782 736.6058017 -348.97602844 736.39595795 C-352.12440124 734.49727997 -353.89877455 731.85549118 -355.95649719 728.88814545 C-356.38712463 728.27648529 -356.81775208 727.66482513 -357.26142883 727.03462982 C-365.85248945 714.58536486 -372.70332393 701.05239992 -378.26899719 687.01314545 C-378.51585266 686.39536224 -378.76270813 685.77757904 -379.01704407 685.14107513 C-383.35727189 674.12484803 -385.88050278 663.14312244 -387.76997375 651.46578217 C-388.25566203 648.87626109 -388.25566203 648.87626109 -389.23086572 645.87733966 C-390.38423239 641.86339185 -390.93717014 637.87968754 -391.37812424 633.7334013 C-391.46238997 632.95053728 -391.5466557 632.16767326 -391.63347493 631.36108608 C-392.49263285 622.7359227 -392.54769105 614.1490025 -392.52296448 605.48905182 C-392.52527548 603.69561932 -392.52845625 601.90218776 -392.53241897 600.10875815 C-392.54068826 595.23411962 -392.53667788 590.35956045 -392.53044653 585.48492181 C-392.52589032 580.20662513 -392.53292151 574.92834136 -392.53840637 569.6500473 C-392.54726933 559.32958047 -392.54539194 549.00914285 -392.53958109 538.6886749 C-392.53505115 530.29303688 -392.53445745 521.89740701 -392.53662872 513.50176811 C-392.53693519 512.30356542 -392.53724166 511.10536272 -392.53755741 509.87085086 C-392.53819691 507.43611529 -392.53884534 505.00137972 -392.53950259 502.56664415 C-392.54519713 479.76894518 -392.53866239 456.97126233 -392.52790186 434.17356601 C-392.51897288 414.65288063 -392.52051471 395.13221906 -392.52973938 375.61153412 C-392.54046741 352.89916886 -392.54464188 330.18681773 -392.53851485 307.47445029 C-392.53787781 305.04750073 -392.53724907 302.62055117 -392.53662872 300.19360161 C-392.53632017 298.9997598 -392.53601162 297.80591799 -392.53569372 296.57589916 C-392.53397394 288.20225879 -392.53686648 279.82862745 -392.54158783 271.45498848 C-392.54722513 261.23284107 -392.545621 251.01072434 -392.53502634 240.7885804 C-392.52980683 235.5826788 -392.5276485 230.37682815 -392.53432465 225.17092705 C-392.59425488 174.12621097 -392.59425488 174.12621097 -388.11274719 155.5951767 C-387.45458322 152.80102687 -386.88251564 150.03309913 -386.36274719 147.2123642 C-384.69458929 138.19970148 -382.7836399 129.72573003 -379.47212219 121.1576767 C-378.33956716 118.19758968 -377.42280829 115.23662907 -376.51899719 112.20064545 C-369.19340644 90.10619301 -354.01906921 70.69773693 -338.26899719 54.01314545 C-337.5535675 53.2551767 -336.83813782 52.49720795 -336.10102844 51.71627045 C-325.68071763 40.98397428 -313.18933277 33.55258541 -300.20649719 26.32564545 C-299.3798053 25.86190521 -298.5531134 25.39816498 -297.70137024 24.92037201 C-287.40152775 19.25836302 -276.45184188 15.52941435 -265.26899719 12.01314545 C-264.58305481 11.79481049 -263.89711243 11.57647552 -263.19038391 11.35152435 C-229.11660275 0.6655708 -191.58632899 0.55929824 -156.14609957 0.50705981 C-151.65713995 0.49727439 -147.16826881 0.47079384 -142.67936707 0.44675446 C-133.95933456 0.40269993 -125.23932019 0.37402737 -116.51920891 0.35120469 C-109.42445543 0.33228603 -102.3297487 0.30700053 -95.23503113 0.27761078 C-94.21718015 0.27340622 -93.19932917 0.26920166 -92.15063423 0.26486969 C-90.08322565 0.2563253 -88.01581707 0.2477807 -85.94840848 0.23923588 C-60.44352281 0.13522888 -34.93858117 0.07134569 -9.43354225 0.01959515 C-6.2890279 0.01318627 -3.14451393 0.00661171 0 0 Z " fill="#8268E3" transform="translate(500.2689971923828,109.98685455322266)"/>
<path d="M0 0 C1.20462891 -0.02416992 1.20462891 -0.02416992 2.43359375 -0.04882812 C12.03985595 -0.05661278 18.19592984 3.08708351 25.16015625 9.6328125 C30.78509087 16.07472426 34.62728013 24.17014825 34.62304783 32.78712082 C34.62503888 33.68335088 34.62702993 34.57958095 34.62908131 35.5029695 C34.62616847 36.48350995 34.62325563 37.4640504 34.62025452 38.4743042 C34.62153615 40.04138953 34.62153615 40.04138953 34.62284368 41.64013314 C34.62449488 45.1517076 34.61898295 48.66323461 34.61352539 52.17480469 C34.61324342 54.68767801 34.61340145 57.20055141 34.6139679 59.71342468 C34.61419584 65.12908281 34.61135369 70.54472558 34.60573006 75.96038055 C34.59760452 83.79051517 34.59499875 91.62064396 34.59374207 99.45078233 C34.59155321 112.15452876 34.58489761 124.85826877 34.57543945 137.56201172 C34.56626105 149.9028317 34.55918231 162.24364995 34.55493164 174.58447266 C34.55453756 175.72542212 34.55453756 175.72542212 34.55413551 176.88942108 C34.55283048 180.7052767 34.55156677 184.52113233 34.55032361 188.33698797 C34.53995616 219.99549669 34.52226804 251.65399735 34.5 283.3125 C32.01032258 284.55733871 29.68148235 284.61591055 26.93994141 284.85620117 C5.97517035 286.77634333 -7.79874755 296.9767857 -22.12207031 311.52807617 C-23.45133115 312.86338811 -24.78150673 314.19778997 -26.11251831 315.53135681 C-28.95944335 318.38748395 -31.80001618 321.24972616 -34.6357193 324.11699486 C-39.12251185 328.65338041 -43.624236 333.17475289 -48.12811279 337.69416809 C-56.86903036 346.46926382 -65.59504552 355.25909116 -74.31929016 364.05075836 C-85.43731793 375.25355028 -96.56137025 386.45031722 -107.70027232 397.63235646 C-112.17381546 402.12423747 -116.6395639 406.62368365 -121.09932756 411.12924421 C-123.87449534 413.93001095 -126.65585899 416.72456247 -129.43887711 419.51752663 C-130.72544933 420.81129902 -132.0094203 422.10766434 -133.29054642 423.40682983 C-135.04316044 425.18342875 -136.80492372 426.95044539 -138.56915283 428.71549988 C-139.07042859 429.22824264 -139.57170435 429.74098541 -140.08817029 430.26926583 C-144.97848494 435.12392376 -150.16085272 438.26419826 -156.88780212 439.93002319 C-158.415243 440.3165229 -158.415243 440.3165229 -159.97354126 440.71083069 C-161.07016083 440.97689621 -162.1667804 441.24296173 -163.29663086 441.51708984 C-164.46854477 441.81039688 -165.64045868 442.10370392 -166.84788513 442.40589905 C-170.04965978 443.20504787 -173.25348769 443.99473949 -176.45860744 444.78028822 C-179.84187537 445.61192312 -183.22209764 446.45576191 -186.60267639 447.29824829 C-193.0245544 448.89673029 -199.44904843 450.48442284 -205.87457043 452.06818545 C-213.09332549 453.84798242 -220.3091933 455.63934042 -227.52478206 457.43192363 C-236.36702338 459.62851239 -245.20975065 461.82310701 -254.05467224 464.00888062 C-255.29737664 464.31606333 -256.54008104 464.62324604 -257.82044315 464.93973732 C-260.24590734 465.53858246 -262.67165832 466.13626741 -265.09771633 466.73270226 C-270.8647612 468.15295913 -276.62361083 469.59708243 -282.37088013 471.09552002 C-284.00578699 471.51757689 -284.00578699 471.51757689 -285.67372227 471.94816017 C-287.70191964 472.47311095 -289.7282036 473.00554112 -291.75199032 473.54724693 C-297.14973706 474.93756276 -301.92142651 475.84521137 -307.5 475.3125 C-315.11153209 467.70096791 -315.83692511 456.88475139 -315.90589231 446.60941088 C-315.90009947 445.24763217 -315.89401857 443.88585465 -315.88768005 442.52407837 C-315.89186008 441.05129192 -315.89734124 439.5785087 -315.90399987 438.10573137 C-315.9183856 434.08525531 -315.91423141 430.06498545 -315.90683305 426.04449844 C-315.90208657 421.6980983 -315.91462429 417.35174181 -315.92485046 413.00535583 C-315.9420149 404.50072389 -315.94288336 395.9961659 -315.93763756 387.49152113 C-315.93359021 380.5763647 -315.93504612 373.66123007 -315.94038582 366.74607468 C-315.94113424 365.7605145 -315.94188266 364.77495432 -315.94265376 363.75952869 C-315.9441853 361.75713106 -315.94572365 359.75473345 -315.94726873 357.75233583 C-315.96098527 338.98947763 -315.95556205 320.22666117 -315.94408352 301.46380393 C-315.93415218 284.31431614 -315.94709162 267.16493625 -315.97101771 250.0154651 C-315.9954246 232.38797942 -316.00501266 214.76054397 -315.99836498 197.13304174 C-315.99487628 187.24390167 -315.99708177 177.35484457 -316.01461601 167.46571732 C-316.02935787 159.04734926 -316.02994751 150.62912261 -316.0125451 142.21075727 C-316.00404904 137.9194671 -316.00185127 133.62842931 -316.01719666 129.33715248 C-316.03109555 125.4015137 -316.02621451 121.46634228 -316.00695742 117.53073017 C-316.00321295 116.11428387 -316.00607415 114.69779966 -316.01656907 113.28138728 C-316.1275637 97.14148733 -311.83555137 83.89125479 -300.6875 72 C-290.60595903 62.50120706 -277.97510472 58.33948519 -264.6875 55.54296875 C-263.57292419 55.30123428 -262.45834839 55.05949982 -261.30999756 54.81044006 C-257.70844566 54.03174092 -254.1043402 53.26567895 -250.5 52.5 C-247.9988873 51.96189542 -245.49791145 51.42315436 -242.99707031 50.88378906 C-229.09799765 47.89417593 -215.18438124 44.97917259 -201.25027466 42.15756226 C-190.02642842 39.88309382 -178.86605527 37.37760137 -167.70922852 34.79711914 C-156.92522428 32.30394738 -146.12462448 29.92348454 -135.29129028 27.65176392 C-121.13489541 24.68134006 -107.00486083 21.59392823 -92.875 18.5 C-72.63920847 14.06964473 -52.39004723 9.7081769 -32.12060547 5.43432617 C-31.19049149 5.23768875 -30.2603775 5.04105133 -29.30207825 4.8384552 C-27.59099843 4.47679109 -25.87966654 4.1163163 -24.16801453 3.75737 C-20.49567695 2.98068787 -16.85262004 2.15676873 -13.22045898 1.20874023 C-8.70170582 0.12019487 -4.61877457 -0.01853441 0 0 Z " fill="#FDFCFD" transform="translate(583.5,231.6875)"/>
<path d="M0 0 C14.41091433 10.54457146 22.78262128 22.88887314 27.72265625 39.9921875 C28.09003906 41.21421875 28.09003906 41.21421875 28.46484375 42.4609375 C33.1096657 61.04022532 29.10438783 82.11011492 20.72265625 98.9921875 C18.67461873 102.31522877 16.38339738 105.14251801 13.72265625 107.9921875 C12.93503906 108.84683594 12.14742187 109.70148438 11.3359375 110.58203125 C5.06067278 117.12637317 -0.43514283 122.44230838 -9.52734375 124.1171875 C-10.419375 124.28476562 -11.31140625 124.45234375 -12.23046875 124.625 C-12.9059375 124.74617187 -13.58140625 124.86734375 -14.27734375 124.9921875 C-14.80553427 102.71467818 -14.80553427 102.71467818 -11.41796875 96.6796875 C-9.13916723 94.59970759 -6.75610302 92.82449294 -4.27734375 90.9921875 C4.97898223 79.24999231 6.87840271 65.43188405 5.72265625 50.9921875 C3.86463 39.38336234 -3.17932543 29.22642362 -12.27734375 21.9921875 C-22.60281323 15.80989383 -31.3265473 13.93448731 -43.27734375 14.9921875 C-51.32482731 17.33193826 -56.66844548 22.24873611 -60.65234375 29.4921875 C-61.47127888 32.76792802 -61.52640798 35.62982034 -61.27734375 38.9921875 C-60.61734375 39.9821875 -59.95734375 40.9721875 -59.27734375 41.9921875 C-55.73153353 42.45874148 -53.22772518 42.02693331 -50.27734375 39.9921875 C-49.12726065 38.02545835 -49.12726065 38.02545835 -48.27734375 35.9921875 C-46.27734375 33.9921875 -46.27734375 33.9921875 -44.32421875 33.875 C-37.68796358 34.57474119 -33.70602211 36.42858256 -29.02734375 41.3671875 C-22.50668069 51.14818208 -24.12026686 65.14389769 -24.109375 76.4140625 C-24.1060466 77.63949768 -24.1027182 78.86493286 -24.09928894 80.12750244 C-24.0942649 82.69551217 -24.0918792 85.26352833 -24.09204102 87.83154297 C-24.08984168 91.74587681 -24.07160253 95.6599341 -24.05273438 99.57421875 C-24.049802 102.08333238 -24.04781616 104.59244733 -24.046875 107.1015625 C-24.03968948 108.26113464 -24.03250397 109.42070679 -24.02510071 110.61541748 C-24.07134017 127.12570416 -29.61207614 139.0694152 -41.30511475 150.81091309 C-42.34504113 151.83599351 -43.38527331 152.86076379 -44.42578125 153.88525391 C-45.53985064 155.00419309 -46.65262669 156.12442122 -47.76422119 157.24581909 C-50.75467637 160.25489828 -53.76335422 163.2450912 -56.77649689 166.23143053 C-59.94057067 169.37268706 -63.08901326 172.52954661 -66.23974609 175.68417358 C-71.52512012 180.97130637 -76.82225157 186.24642347 -82.12695312 191.51416016 C-88.25132432 197.59609719 -94.35773693 203.69561642 -100.45469475 209.8050257 C-106.33940536 215.70113581 -112.2354052 221.58582482 -118.13702393 227.46500778 C-120.64114101 229.95986022 -123.14147881 232.45841094 -125.63885498 234.96001053 C-128.57803329 237.90296428 -131.52705396 240.83569396 -134.48387909 243.76091385 C-135.56481005 244.83338504 -136.64240279 245.90923328 -137.71631622 246.98873138 C-139.1867419 248.46563971 -140.66899354 249.92959517 -142.15478516 251.39102173 C-142.97991608 252.21204691 -143.805047 253.03307209 -144.65518188 253.87897682 C-151.49228482 259.38902528 -158.74524249 259.9048252 -167.27734375 258.9921875 C-181.35891149 255.35040274 -194.41278215 237.07547409 -204.3046875 227.23828125 C-205.20747499 226.34081743 -206.11026249 225.44335361 -207.04040718 224.51869392 C-210.83183228 220.74840878 -214.62225097 216.97712615 -218.40878963 213.20193386 C-223.8010389 207.82596506 -229.20165978 202.45872575 -234.61407083 197.10305351 C-238.90381036 192.85674178 -243.17971448 188.59675753 -247.45099068 184.33186531 C-249.2612277 182.52833717 -251.07571382 180.72906331 -252.8945446 178.93420219 C-255.43369694 176.42665263 -257.95663853 173.90380396 -260.47631836 171.37670898 C-261.22593338 170.6434993 -261.9755484 169.91028961 -262.74787903 169.15486145 C-268.08596818 163.75223487 -271.27288849 158.73968895 -271.65234375 150.9296875 C-270.39589219 137.73694615 -258.61999793 129.18206626 -249.77758789 120.33129883 C-248.62679961 119.17587294 -247.47620585 118.02025328 -246.32579041 116.86445618 C-243.22084078 113.74647943 -240.11264378 110.6317608 -237.00340581 107.51806092 C-235.05756918 105.56928047 -233.11231556 103.61991986 -231.16723442 101.67038536 C-225.07091335 95.56042076 -218.97261605 89.452439 -212.87140661 83.34735566 C-205.84648586 76.31794858 -198.82816438 69.2820392 -191.81547838 62.24042684 C-186.37937991 56.78268959 -180.93750865 51.3307524 -175.49124807 45.883156 C-172.24464793 42.63551029 -169.00049892 39.38550502 -165.76234627 36.12943459 C-162.71799741 33.06856496 -159.66651618 30.0149878 -156.60952187 26.96674919 C-155.49274483 25.85074012 -154.3785016 24.73218848 -153.2670784 23.61084747 C-138.00938707 8.22507676 -126.30217107 5.5721939 -105.15234375 5.3671875 C-102.44857251 5.33044754 -99.74493503 5.28962952 -97.04129028 5.24453735 C-95.3695568 5.21774808 -93.69772727 5.19621487 -92.02584839 5.18099976 C-87.03468856 5.1143026 -82.20090617 4.85314943 -77.27734375 3.9921875 C-75.28886325 1.80023015 -75.28886325 1.80023015 -73.27734375 -1.0078125 C-51.37429391 -19.13867042 -22.60345579 -15.15569842 0 0 Z " fill="#FDFBFD" transform="translate(729.27734375,529.0078125)"/>
<path d="M0 0 C3.00364273 2.37937159 4.51803708 3.99039054 5.74389648 7.66796875 C6.32114598 13.08086567 6.52616002 18.4961738 3.27058411 23.09416199 C-2.79323056 29.34512806 -14.61446934 30.29767987 -22.73657227 32.0234375 C-24.14032923 32.3285823 -25.5439051 32.63456119 -26.9473114 32.9413147 C-29.91093861 33.58756368 -32.87559835 34.22872601 -35.84124756 34.8656311 C-40.49006688 35.86419214 -45.13630649 36.87437806 -49.78198242 37.88745117 C-50.55147091 38.05524613 -51.3209594 38.2230411 -52.11376572 38.39592075 C-53.65969706 38.73307712 -55.20561716 39.070285 -56.75152588 39.40754509 C-59.05000512 39.90865636 -61.34871252 40.40870975 -63.64746094 40.90858459 C-74.83010529 43.34251406 -85.98899506 45.86736068 -97.13110352 48.48046875 C-111.86876516 51.92834323 -126.64635181 55.17088729 -141.44119263 58.36392212 C-156.78273136 61.67574891 -172.09583993 65.09523544 -187.38876343 68.6245575 C-189.25885237 69.05593069 -191.1292965 69.48576318 -192.99975586 69.91552734 C-194.9861964 70.37453242 -196.97129038 70.83948415 -198.95385742 71.31494141 C-203.34459257 72.3484345 -207.46961749 72.98764575 -212.00610352 73.04296875 C-213.07344727 73.07132812 -214.14079102 73.0996875 -215.24047852 73.12890625 C-218.97904579 72.55746721 -220.56511456 71.27427624 -223.25610352 68.66796875 C-226.37919028 63.9833386 -225.8298185 59.15094109 -225.25610352 53.66796875 C-222.90769521 48.40753415 -219.38434962 45.98690379 -214.25610352 43.66796875 C-210.6313796 42.53460142 -206.95594229 41.72985375 -203.24438477 40.93359375 C-202.17574188 40.69463882 -201.107099 40.4556839 -200.006073 40.20948792 C-196.52923353 39.43474152 -193.04905818 38.67629241 -189.56860352 37.91796875 C-187.15015378 37.38217146 -184.73194219 36.84529816 -182.31396484 36.30737305 C-176.36218849 34.98562941 -170.40779644 33.67614523 -164.45251465 32.37030029 C-160.01797051 31.39591993 -155.58594066 30.410443 -151.15454102 29.421875 C-149.66976455 29.09079594 -148.1849828 28.75974059 -146.70019531 28.42871094 C-145.99389984 28.2712439 -145.28760437 28.11377686 -144.55990601 27.95153809 C-141.72443104 27.32038762 -138.88820788 26.69263695 -136.05198669 26.06484985 C-125.78103165 23.79095888 -115.51824444 21.48126535 -105.25610352 19.16796875 C-91.0455791 15.96531335 -76.83294538 12.7724578 -62.60791016 9.63476562 C-55.6929449 8.10807687 -48.78269127 6.56579093 -41.88394165 4.96717834 C-38.60990998 4.20942506 -35.33390906 3.46039205 -32.05773926 2.71194458 C-30.50717659 2.35516785 -28.95756981 1.99420541 -27.40905762 1.62863159 C-5.85498 -3.45685217 -5.85498 -3.45685217 0 0 Z " fill="#8A6FEC" transform="translate(551.256103515625,423.33203125)"/>
<path d="M0 0 C3.029047 2.52029234 4.24177866 5.35682598 4.7890625 9.2109375 C5.01434617 13.9328833 4.15873392 17.24165155 1.51171875 21.2578125 C-2.62544684 25.29119736 -6.50632212 26.34240552 -11.9765625 27.51953125 C-12.81368774 27.71104263 -13.65081299 27.90255402 -14.51330566 28.09986877 C-17.27305857 28.7279146 -20.03670614 29.33659709 -22.80078125 29.9453125 C-24.75963224 30.38713545 -26.71820603 30.830189 -28.67651367 31.27441406 C-33.67406216 32.40498416 -38.67489066 33.52024618 -43.67675781 34.63153076 C-47.80359784 35.55080624 -51.92728714 36.48382013 -56.05078125 37.41796875 C-62.42020148 38.85908264 -68.79146599 40.29174951 -75.1640625 41.71875 C-89.10875686 44.84216907 -103.04873711 47.986504 -116.98828125 51.1328125 C-117.64998825 51.28214863 -118.31169525 51.43148476 -118.99345398 51.58534622 C-141.63860868 56.69625281 -164.27309102 61.85284034 -186.8984375 67.05078125 C-187.74781891 67.24562103 -188.59720032 67.44046082 -189.47232056 67.64120483 C-193.15379306 68.48658745 -196.83384662 69.33670062 -200.50927734 70.20800781 C-201.66637207 70.4809668 -202.8234668 70.75392578 -204.015625 71.03515625 C-204.98105225 71.26581787 -205.94647949 71.49647949 -206.94116211 71.73413086 C-211.69455975 72.71141812 -215.67493203 73.04084966 -220.23828125 71.0703125 C-226.18232732 66.28205317 -226.18232732 66.28205317 -226.875 61.69921875 C-227.05311266 57.17270057 -226.81514452 53.97691169 -224.92578125 49.8203125 C-220.17315464 44.82396145 -214.93926907 42.82783359 -208.30078125 41.43359375 C-207.61826294 41.28629318 -206.93574463 41.13899261 -206.23254395 40.98722839 C-204.75858611 40.67041015 -203.28347764 40.3589067 -201.80737305 40.05224609 C-198.60639398 39.38704632 -195.41122174 38.69568239 -192.2154541 38.00595093 C-190.53075571 37.64253437 -188.84577345 37.28043153 -187.16052246 36.91958618 C-177.35264108 34.81494424 -167.58659211 32.53329559 -157.81884766 30.25088501 C-146.50552673 27.60969022 -135.17071146 25.07054611 -123.828125 22.55859375 C-104.58524293 18.29629501 -85.36742163 13.92654571 -66.15270996 9.53924561 C-62.63251593 8.73570331 -59.11211859 7.93305381 -55.59171391 7.13043499 C-51.31888941 6.15625506 -47.04614967 5.1817037 -42.7734375 4.20703125 C-41.98786028 4.02783331 -41.20228306 3.84863537 -40.39290047 3.66400719 C-38.87269684 3.31716571 -37.35251552 2.97022645 -35.83235836 2.62318134 C-34.39503582 2.29505581 -32.95766258 1.96715225 -31.52023411 1.63949108 C-28.23237368 0.88910946 -24.94678196 0.1309196 -21.66329956 -0.63851929 C-20.50395905 -0.910159 -19.34461853 -1.18179871 -18.15014648 -1.46166992 C-17.14451157 -1.69939621 -16.13887665 -1.9371225 -15.10276794 -2.18205261 C-9.21901829 -3.44260347 -5.04543141 -3.24268176 0 0 Z " fill="#8D70EF" transform="translate(552.48828125,336.7421875)"/>
<path d="M0 0 C4.25412846 3.35603467 6.13963618 6.70688876 7 12 C7.08399876 13.60338897 7.12207285 15.20967514 7.12025452 16.81526184 C7.12231651 18.22652847 7.12231651 18.22652847 7.12442017 19.66630554 C7.11902725 21.19623894 7.11902725 21.19623894 7.11352539 22.75708008 C7.11367142 23.84045654 7.11381744 24.92383301 7.1139679 26.04003906 C7.11327192 29.61655691 7.1054942 33.19302251 7.09765625 36.76953125 C7.09579095 39.25103222 7.09436758 41.73253356 7.09336853 44.21403503 C7.08955215 50.74226907 7.07972934 57.27048082 7.06866455 63.79870605 C7.05789079 70.46150289 7.05386686 77.1243062 7.04882812 83.78710938 C7.03810631 96.85808242 7.02123289 109.92904002 7 123 C6.53162216 122.59619614 6.06324432 122.19239227 5.58067322 121.77635193 C4.95971268 121.24228226 4.33875214 120.70821259 3.69897461 120.15795898 C3.08622177 119.63040512 2.47346893 119.10285126 1.84214783 118.55931091 C-20.78714509 99.40444024 -47.65861491 93.1091806 -77 95 C-83.7641479 95.87498047 -90.38491242 97.36086325 -97 99 C-98.32 97.35 -99.64 95.7 -101 94 C-100.46430893 93.46652954 -99.92861786 92.93305908 -99.37669373 92.38342285 C-94.29924972 87.3261153 -89.2242908 82.26633252 -84.15202236 77.20383453 C-81.54498711 74.6019914 -78.93704126 72.00107556 -76.3269043 69.40234375 C-73.80241107 66.88881107 -71.28045389 64.37275828 -68.760149 61.85502625 C-67.34233321 60.43992487 -65.92198251 59.02736472 -64.50157166 57.61486816 C-59.99404968 53.1077329 -55.63155494 48.54723622 -51.4797821 43.71008301 C-48.08342216 39.78514202 -44.35417885 36.16966717 -40.6875 32.5 C-39.87732422 31.67757813 -39.06714844 30.85515625 -38.23242188 30.0078125 C-37.07129883 28.84378906 -37.07129883 28.84378906 -35.88671875 27.65625 C-35.18764404 26.95306641 -34.48856934 26.24988281 -33.76831055 25.52539062 C-32 24 -32 24 -30 24 C-29.75830078 23.4330542 -29.51660156 22.8661084 -29.26757812 22.28198242 C-27.75020799 19.55030703 -25.93421219 17.69196398 -23.71875 15.48828125 C-22.87699219 14.64845703 -22.03523437 13.80863281 -21.16796875 12.94335938 C-20.28753906 12.07517578 -19.40710938 11.20699219 -18.5 10.3125 C-17.61957031 9.43271484 -16.73914063 8.55292969 -15.83203125 7.64648438 C-7.16987081 -0.95598277 -7.16987081 -0.95598277 0 0 Z " fill="#FDFCFD" transform="translate(748,390)"/>
<path d="M0 0 C0.33 0 0.66 0 1 0 C3.51571963 30.16547588 6.20073747 65.39901671 -13 91 C-13.763125 92.0725 -14.52625 93.145 -15.3125 94.25 C-27.70885128 106.93463852 -43.44432649 109.98230758 -60.64794922 110.22705078 C-63.36709514 110.23412452 -66.08563436 110.21620494 -68.8046875 110.1953125 C-70.26441247 110.19156958 -71.72414 110.18872868 -73.18386841 110.18673706 C-76.97478512 110.17920102 -80.76554181 110.15964244 -84.55639648 110.1373291 C-88.44512774 110.11665089 -92.33388554 110.10768899 -96.22265625 110.09765625 C-103.81517611 110.07638403 -111.4075654 110.04237397 -119 110 C-114.01290587 103.92196225 -108.5232479 98.40519511 -102.9493885 92.87422371 C-101.25169673 91.18945136 -99.55728494 89.50143889 -97.8636322 87.81260681 C-93.65805507 83.62030524 -89.44703352 79.43348639 -85.23614502 75.246521 C-81.66976059 71.69998103 -78.10550951 68.15132212 -74.54397392 64.59991264 C-72.88718234 62.94952945 -71.22737249 61.30222541 -69.56739807 59.65504456 C-64.16412419 54.27797166 -58.92298043 48.82612118 -54 43 C-46.18284203 34.02204317 -38.96162957 28.51834005 -28.015625 23.8125 C-17.22956538 19.12202984 -6.53796688 9.80695032 0 0 Z " fill="#E6E0F7" transform="translate(754,665)"/>
<path d="M0 0 C2.98346943 2.78500598 4.04671656 4.63625423 4.57104492 8.67236328 C4.63361065 13.13955655 4.5410542 16.38529775 2.73510742 20.52392578 C-2.75094005 26.14712444 -9.84330267 27.86072948 -17.34301758 29.38330078 C-18.25378555 29.57759171 -19.16455353 29.77188263 -20.10292053 29.97206116 C-22.05494915 30.38713056 -24.00803827 30.79723852 -25.96206665 31.20278931 C-29.07582698 31.84907316 -32.18658704 32.50836128 -35.296875 33.17114258 C-39.50526468 34.06733488 -43.71452189 34.95924381 -47.92456055 35.84765625 C-54.96727534 37.33727217 -61.99845782 38.87615796 -69.02462769 40.44177246 C-71.0926711 40.90232833 -73.1613067 41.36015588 -75.22998047 41.81787109 C-83.65824169 43.68912388 -92.07258776 45.61660025 -100.48146057 47.57316589 C-105.02093129 48.62900371 -109.56152781 49.67994787 -114.10241604 50.72966862 C-117.33182273 51.47689388 -120.55988856 52.22934354 -123.78652954 52.98843384 C-127.41665444 53.84239846 -131.04941508 54.68422282 -134.68286133 55.52392578 C-135.76888641 55.78288132 -136.8549115 56.04183685 -137.97384644 56.30863953 C-152.24143594 59.57410747 -152.24143594 59.57410747 -158.57739258 56.89892578 C-162.55711504 53.60144146 -164.87704293 50.93233224 -165.76489258 45.77392578 C-166.09056675 40.88881315 -165.01699791 36.80881105 -161.76489258 33.08642578 C-155.70314528 28.95267922 -149.56101688 27.62161663 -142.44067383 26.13330078 C-141.23876404 25.87214981 -140.03685425 25.61099884 -138.79852295 25.3419342 C-136.22726308 24.78486096 -133.65554081 24.2320451 -131.08181763 23.68667603 C-127.03864729 22.82990336 -122.99908549 21.9569183 -118.95996094 21.08129883 C-113.6259448 19.92620539 -108.29067139 18.77719134 -102.9543457 17.6328125 C-94.92402051 15.9087901 -86.90274043 14.14621627 -78.88659668 12.35754395 C-76.83064722 11.89965064 -74.77393616 11.44532363 -72.71704102 10.99169922 C-65.55428321 9.40747096 -58.40503955 7.77420356 -51.26564026 6.08757019 C-47.2685047 5.14424726 -43.26902058 4.21107824 -39.26950073 3.27792358 C-37.33962031 2.82433452 -35.41095317 2.36554523 -33.4836731 1.90103149 C-6.61046028 -4.57508059 -6.61046028 -4.57508059 0 0 Z " fill="#886EEB" transform="translate(490.764892578125,523.91357421875)"/>
<path d="M0 0 C6.43268864 3.64036399 10.28557441 9.05548891 12.625 16 C13.74136824 24.45064796 12.25520295 32.22861938 7.046875 39.07421875 C1.41512675 45.12454288 -3.65886272 47.13655837 -11.8125 47.4375 C-18.57415531 47.2513994 -23.05454433 45.99447486 -28.0859375 41.45703125 C-33.28521611 35.91536113 -35.47107754 30.17197222 -35.875 22.625 C-35.64112223 15.58917723 -33.19196948 10.06686194 -28.4375 4.890625 C-20.23974678 -2.62398212 -10.4203804 -4.68207712 0 0 Z " fill="#6652D5" transform="translate(644.375,576)"/>
<path d="M0 0 C5.51047892 -0.00162399 11.02095481 -0.00455095 16.53143239 -0.00871062 C83.7233827 -0.05894087 83.7233827 -0.05894087 116.02311474 0.56742591 C117.59671922 0.59654877 117.59671922 0.59654877 119.20211369 0.62625998 C122.07173651 0.68150507 124.94107863 0.74394108 127.81046826 0.81010169 C129.04764819 0.83458318 129.04764819 0.83458318 130.30982167 0.85955924 C133.83624879 0.95117774 136.98923539 1.26637304 140.39420849 2.12211341 C142.27199543 2.21569083 144.15021027 2.30483332 146.0294624 2.3618595 C155.60260876 2.66438311 165.03095152 3.71391221 174.51920849 4.99711341 C175.75147167 5.15864905 176.98373486 5.3201847 178.25333935 5.48661536 C184.96028497 6.4267475 191.05238778 7.73540669 197.39420849 10.12211341 C193.32161314 11.32950513 190.55004389 10.69083436 186.39420849 9.74711341 C176.48428057 7.61379624 176.48428057 7.61379624 166.39420849 7.12211341 C164.90920849 8.11211341 164.90920849 8.11211341 163.39420849 9.12211341 C162.90307568 8.80500403 162.41194287 8.48789466 161.90592724 8.16117591 C158.40516967 6.71296204 154.94327797 6.65293907 151.20670849 6.49711341 C150.44293896 6.45844153 149.67916943 6.41976966 148.89225537 6.37992591 C145.05662253 6.19680959 141.23486991 6.08118273 137.39420849 6.12211341 C134.5468665 6.12211341 132.09785691 5.99792592 129.31423718 5.62821692 C124.08992585 5.02479564 118.92767475 4.99605487 113.67374951 5.02445716 C112.12577931 5.02664756 112.12577931 5.02664756 110.54653698 5.02888221 C108.32201995 5.0326674 106.09750587 5.03876171 103.87300068 5.04694861 C100.35580742 5.0597676 96.83865205 5.06624117 93.32143933 5.07108802 C85.86651191 5.08248005 78.41161608 5.10174972 70.95670849 5.12211341 C62.29274434 5.14569486 53.6287976 5.16606823 44.964809 5.17805213 C41.49362478 5.1845516 38.0224945 5.19705439 34.55132824 5.20975989 C32.4371879 5.21339012 30.32304705 5.21674213 28.20890576 5.21976966 C26.75413327 5.22751914 26.75413327 5.22751914 25.26997143 5.23542517 C23.9475066 5.23553092 23.9475066 5.23553092 22.59832531 5.2356388 C21.44610407 5.23896971 21.44610407 5.23896971 20.27060562 5.24236792 C18.39420849 5.12211341 18.39420849 5.12211341 16.39420849 4.12211341 C14.77360241 4.02349601 13.14896788 3.98825175 11.52537113 3.98344821 C10.49030395 3.97797376 9.45523676 3.97249932 8.3888039 3.96685898 C7.24290889 3.96588088 6.09701387 3.96490277 4.91639477 3.96389502 C3.70595442 3.95895705 2.49551407 3.95401907 1.24839371 3.94893146 C-2.12196246 3.93618761 -5.49227701 3.92792222 -8.86264771 3.9215048 C-12.4931971 3.91351572 -16.12372533 3.89981283 -19.75425953 3.88679236 C-26.04791456 3.86500838 -32.34157171 3.84687094 -38.63524479 3.83118743 C-47.7349178 3.80850627 -56.83456741 3.78036103 -65.9342206 3.75086815 C-80.69664146 3.7031707 -95.45907189 3.65991236 -110.22151417 3.61942786 C-124.56462069 3.58008388 -138.90771872 3.5386603 -153.25081104 3.49442786 C-154.57624891 3.49034145 -154.57624891 3.49034145 -155.9284633 3.48617249 C-160.36120722 3.47249319 -164.79395102 3.45877288 -169.22669476 3.44503218 C-206.01970937 3.33103358 -242.81274211 3.22423172 -279.60579151 3.12211341 C-279.60579151 2.79211341 -279.60579151 2.46211341 -279.60579151 2.12211341 C-271.90938354 0.89416655 -264.23802079 0.94759128 -256.46052784 0.91679114 C-254.9138306 0.9071894 -253.36713582 0.89718354 -251.82044357 0.88680953 C-247.5866913 0.85969647 -243.35292803 0.83866693 -239.11913627 0.81881565 C-235.49382619 0.80109212 -231.86853922 0.77995033 -228.24324781 0.75879133 C-217.37351288 0.69537907 -206.50374371 0.64121635 -195.63394779 0.58948249 C-189.4226406 0.55986189 -183.21134441 0.52824987 -177.0000481 0.49644202 C-118.00026359 0.19618811 -59.00056061 0.01694323 0 0 Z " fill="#E7D9FB" transform="translate(580.6057915091515,109.87788659334183)"/>
<path d="M0 0 C0.33 0 0.66 0 1 0 C1.00135653 0.75122424 1.00271306 1.50244849 1.00411069 2.2764371 C1.08477852 46.81010202 1.17574042 91.34373573 1.28005161 135.87735187 C1.29257033 141.22577021 1.30500313 146.57418875 1.31738281 151.92260742 C1.31984881 152.98737148 1.3223148 154.05213554 1.32485552 155.14916518 C1.36456822 172.38471822 1.39732216 189.62027782 1.42749982 206.8558499 C1.45862497 224.54400677 1.49723895 242.2321359 1.54279006 259.92026156 C1.57065693 270.83283622 1.5926978 281.7453906 1.60726251 292.65799125 C1.61781286 300.14338391 1.63564409 307.62873728 1.65916704 315.11410031 C1.67252005 319.43131719 1.68269513 323.74847906 1.68421364 328.0657177 C1.68567666 332.02317199 1.69634309 335.98049395 1.71413441 339.93790754 C1.71895928 341.36473504 1.72049184 342.79157856 1.71827881 344.2184125 C1.70771327 352.37284211 2.19112875 360.03527652 4 368 C1.54424271 366.38622716 0.46016994 365.50055664 -1 363 C-1.78281255 358.31573484 -1.65744802 353.62133514 -1.60800171 348.88600159 C-1.61089824 347.413403 -1.61598883 345.94080737 -1.62308562 344.46822304 C-1.63621753 340.42050398 -1.61812856 336.37343098 -1.59498715 332.32577884 C-1.57546882 327.96101324 -1.58478601 323.59629843 -1.59057617 319.23150635 C-1.59739985 310.68019218 -1.57771375 302.12913256 -1.54941289 293.57787056 C-1.51759367 283.62248442 -1.51316377 273.66714344 -1.51022096 263.71171378 C-1.50415338 245.94959895 -1.47501882 228.18759814 -1.43212891 210.42553711 C-1.39053503 193.18530047 -1.36219812 175.94511729 -1.35009766 158.70483398 C-1.34934944 157.6431826 -1.34860123 156.58153121 -1.34783034 155.48770858 C-1.34485609 151.22048852 -1.3419188 146.95326843 -1.33904406 142.6860483 C-1.32630795 124.28240103 -1.3025562 105.87876571 -1.2774058 87.47513184 C-1.27342456 84.4942187 -1.26970588 81.51330534 -1.26605177 78.53239179 C-1.25302542 68.09518891 -1.2366859 57.65800718 -1.21106736 47.22082681 C-1.20048453 42.90420533 -1.19137576 38.58759571 -1.18649673 34.27096367 C-1.1819451 30.32017706 -1.17276104 26.36942943 -1.15983529 22.41866159 C-1.15593802 20.98870393 -1.1536989 19.5587406 -1.15327708 18.12877769 C-1.1524313 16.18575165 -1.14488696 14.24273199 -1.13701439 12.29972172 C-1.13468375 11.22022914 -1.1323531 10.14073656 -1.12995183 9.02853209 C-0.99769778 5.94634677 -0.57115868 3.02906264 0 0 Z " fill="#624ACF" transform="translate(267,332)"/>
<path d="M0 0 C103.29 0 206.58 0 313 0 C311 2 311 2 308.94554538 2.24724633 C308.09062717 2.24594481 307.23570897 2.2446433 306.35488415 2.24330235 C304.87701011 2.24835044 304.87701011 2.24835044 303.36928004 2.25350052 C301.73377593 2.24373882 301.73377593 2.24373882 300.06523132 2.23377991 C298.33683328 2.23528483 298.33683328 2.23528483 296.5735181 2.23682016 C293.36502401 2.23761061 290.15669483 2.22939101 286.94822729 2.2174722 C283.49127125 2.20680861 280.03431655 2.20767239 276.5773468 2.2071991 C270.58162545 2.20483289 264.58595036 2.19523703 258.5902462 2.18089485 C249.90724711 2.16022469 241.22426788 2.15153441 232.54124746 2.1459735 C218.43593234 2.13670765 204.33064033 2.11924316 190.2253418 2.09594727 C189.38054824 2.09455395 188.53575468 2.09316064 187.66536132 2.0917251 C186.39667027 2.08963181 186.39667027 2.08963181 185.1023491 2.08749622 C173.13781515 2.06777005 161.17328044 2.04992407 149.20874023 2.03442383 C148.36830918 2.03333298 147.52787812 2.03224213 146.66197946 2.03111822 C132.62371228 2.01306308 118.58544273 1.99911197 104.54716903 1.98725218 C95.8931343 1.97967905 87.23912301 1.96795761 78.58510188 1.95079052 C72.64482716 1.9391757 66.70455432 1.93102215 60.7642708 1.92552502 C57.34195944 1.92221046 53.91967186 1.91722957 50.49737167 1.90771103 C46.77543318 1.89819835 43.05353785 1.89497558 39.33158875 1.89320374 C38.26579061 1.88892665 37.19999247 1.88464957 36.10189742 1.88024288 C28.69556865 1.88577718 21.37608448 2.34204091 14 3 C14 2.67 14 2.34 14 2 C7.07 1.505 7.07 1.505 0 1 C0 0.67 0 0.34 0 0 Z " fill="#9560F9" transform="translate(284,113)"/>
<path d="M0 0 C18.27492516 1.11887297 38.83671832 11.27058555 54 21 C54.99257813 21.61488281 55.98515625 22.22976562 57.0078125 22.86328125 C63.38333546 26.93154973 68.9637774 31.44040833 74.46875 36.62109375 C76.67788341 38.69727006 78.93436812 40.67007232 81.25 42.625 C85.19497321 46.05647463 88.89598991 49.78048629 92 54 C92 54.66 92 55.32 92 56 C92.84498047 56.29003906 92.84498047 56.29003906 93.70703125 56.5859375 C96.96427467 58.59466342 98.66267823 61.4675898 100.6875 64.625 C101.11667725 65.28363037 101.54585449 65.94226074 101.98803711 66.62084961 C105.14307916 71.52426021 108.15517661 76.50860383 111.0625 81.5625 C111.6352063 82.54307373 111.6352063 82.54307373 112.21948242 83.54345703 C114.36072582 87.35697964 115.56375604 90.6442718 116 95 C113.23734759 91.59981242 111.30097336 87.87858049 109.3125 84 C103.5480885 73.03446589 96.72830962 63.3421049 88.61328125 54.0078125 C86.83644756 51.96272738 85.09836148 49.91059932 83.3828125 47.81640625 C80.2291909 44.08892892 76.76106004 41.098735 73 38 C72.49791016 37.58556641 71.99582031 37.17113281 71.47851562 36.74414062 C57.15228536 24.51844812 57.15228536 24.51844812 40 18 C37.94620232 17.06957943 35.92411436 16.06636332 33.9375 15 C30.25736625 13.02968386 27.14398833 11.60829186 23 11 C23 10.34 23 9.68 23 9 C22.01 9.33 21.02 9.66 20 10 C20 9.34 20 8.68 20 8 C18.35 8 16.7 8 15 8 C15 7.01 15 6.02 15 5 C14.16855469 4.80664062 13.33710937 4.61328125 12.48046875 4.4140625 C10.85044922 4.02347656 10.85044922 4.02347656 9.1875 3.625 C8.10855469 3.36976562 7.02960937 3.11453125 5.91796875 2.8515625 C3 2 3 2 0 0 Z " fill="#F8F4FB" transform="translate(780,121)"/>
<path d="M0 0 C18.14399104 -0.09419198 36.28791708 -0.16434052 54.43210125 -0.20724869 C62.86017302 -0.22771716 71.28809133 -0.25552949 79.71606445 -0.30175781 C87.07728456 -0.34211501 94.43839337 -0.36754631 101.79972106 -0.37635398 C105.68355841 -0.38148781 109.56707787 -0.39320762 113.45081139 -0.42292023 C159.99665716 -0.76454128 159.99665716 -0.76454128 181 7 C176.92740465 8.20739172 174.1558354 7.56872095 170 6.625 C160.09007208 4.49168283 160.09007208 4.49168283 150 4 C149.01 4.66 148.02 5.32 147 6 C146.50886719 5.68289062 146.01773438 5.36578125 145.51171875 5.0390625 C142.01096118 3.59084864 138.54906948 3.53082566 134.8125 3.375 C133.6668457 3.31699219 133.6668457 3.31699219 132.49804688 3.2578125 C128.66241404 3.07469618 124.84066142 2.95906933 121 3 C118.15209669 3 115.70398215 2.87544095 112.92002869 2.50511169 C107.6948183 1.90161568 102.5341623 1.88116874 97.27954102 1.91821289 C96.24756088 1.92127945 95.21558075 1.92434601 94.15232849 1.92750549 C91.92780834 1.93462085 89.70329446 1.94398961 87.47879219 1.95540047 C83.96160082 1.97286633 80.4444553 1.98311233 76.92723083 1.99131775 C66.93296993 2.01571737 56.93877159 2.05154858 46.94458008 2.09594727 C40.81992433 2.12265495 34.69530351 2.13974304 28.57060051 2.15081596 C26.23610063 2.15703848 23.90160776 2.1670595 21.56714058 2.18089485 C18.31628017 2.20000726 15.06560608 2.20699177 11.81469727 2.21118164 C10.84484894 2.21994324 9.87500061 2.22870483 8.87576294 2.23773193 C7.55329811 2.23577568 7.55329811 2.23577568 6.20411682 2.23377991 C5.43596932 2.23692231 4.66782183 2.24006472 3.87639713 2.24330235 C2 2 2 2 0 0 Z " fill="#B48FF9" transform="translate(597,113)"/>
<path d="M0 0 C0.66 0.33 1.32 0.66 2 1 C1.37351563 1.45890625 0.74703125 1.9178125 0.1015625 2.390625 C-0.71570313 3.00421875 -1.53296875 3.6178125 -2.375 4.25 C-3.18710938 4.85328125 -3.99921875 5.4565625 -4.8359375 6.078125 C-7.00971128 8.00862446 -7.80289089 9.41065827 -9 12 C-10.45891321 13.26439145 -11.92252344 14.52498852 -13.43359375 15.7265625 C-15.79833396 17.64901963 -17.87150506 19.82082661 -20 22 C-20.59683594 22.56332031 -21.19367188 23.12664062 -21.80859375 23.70703125 C-29.26613821 30.84475899 -34.90743237 39.20646129 -40.5546875 47.80078125 C-42.57389297 50.87324795 -44.64077235 53.91339791 -46.703125 56.95703125 C-47.94936137 58.9202289 -49.00057426 60.90214879 -50 63 C-50.99 63 -51.98 63 -53 63 C-52.50198065 57.69132568 -49.69384854 53.72796538 -46.9375 49.3125 C-46.43798828 48.5066748 -45.93847656 47.70084961 -45.42382812 46.87060547 C-34.84581676 30.03608738 -18.30659649 8.87592557 0 0 Z " fill="#9566F5" transform="translate(184,146)"/>
<path d="M0 0 C2.91559775 1.3069921 4.83937661 2.65932466 7 5 C7.99 5.9590625 7.99 5.9590625 9 6.9375 C12.63596888 10.68709291 14.51267509 13.9814022 16.15625 18.90234375 C16.96804729 21.11593518 16.96804729 21.11593518 18.5234375 23.33984375 C20.26878861 26.48424615 20.67524712 29.06786362 21.125 32.625 C21.55579299 35.92774629 21.94601107 38.83803322 23 42 C23.66 42 24.32 42 25 42 C24.7525 43.9490625 24.7525 43.9490625 24.5 45.9375 C24.12630562 49.23327686 23.95541525 52.43400887 24 55.75 C24.04933549 59.78846257 23.83223777 63.33552446 22 67 C22.33 67.99 22.66 68.98 23 70 C22.34964186 71.34136367 21.6837045 72.67532254 21 74 C21.495 74.99 21.495 74.99 22 76 C21.34 76 20.68 76 20 76 C19.979375 77.11375 19.95875 78.2275 19.9375 79.375 C19.02297932 86.93324444 13.29349442 92.90515769 8 98 C9.25366733 94.7220625 10.68342132 91.69570016 12.375 88.625 C22.07116897 69.49084407 22.52190682 46.04212025 16.00390625 25.92578125 C12.32762187 16.19444025 6.22302566 8.24451807 0 0 Z " fill="#5948CB" transform="translate(738,536)"/>
<path d="M0 0 C1.16023698 3.48071094 0.68484711 5.13393476 -0.65625 8.48046875 C-2.41419748 11.77662027 -4.55386383 14.72432358 -6.8125 17.6875 C-7.22669189 18.23390137 -7.64088379 18.78030273 -8.06762695 19.34326172 C-11.03367355 23.11052461 -14.24697428 26.01857537 -18 29 C-19.01680311 29.98290968 -20.02738219 30.97334787 -21 32 C-21.66 31.67 -22.32 31.34 -23 31 C-23.33 31.66 -23.66 32.32 -24 33 C-26.51171875 33.78125 -26.51171875 33.78125 -29.6875 34.5 C-33.87737369 35.48379632 -37.94616897 36.53611657 -42 38 C-42.33 37.67 -42.66 37.34 -43 37 C-43.66 37.99 -44.32 38.98 -45 40 C-45 39.01 -45 38.02 -45 37 C-45.69931641 37.03552979 -46.39863281 37.07105957 -47.11914062 37.10766602 C-69.79390807 38.19948159 -92.32196699 37.76401929 -115 37 C-115 36.67 -115 36.34 -115 36 C-113.8063533 35.98786972 -113.8063533 35.98786972 -112.58859253 35.97549438 C-105.02872148 35.89702008 -97.46902899 35.80957829 -89.90937614 35.71247292 C-86.02441739 35.66287508 -82.13948116 35.61654735 -78.25439453 35.578125 C-74.49356492 35.54080397 -70.73294259 35.49432926 -66.97229385 35.44193649 C-65.54928408 35.42363752 -64.12623032 35.40844302 -62.7031517 35.39665604 C-44.54128533 35.24107762 -26.86241204 33.96145763 -13 21 C-7.6221272 14.71937652 -3.39078815 7.51870416 0 0 Z " fill="#5546CB" transform="translate(750,739)"/>
<path d="M0 0 C5.3889272 4.4940148 10.3810866 9.25443767 15.31860352 14.23681641 C16.1195343 15.04081375 16.92046509 15.8448111 17.7456665 16.673172 C19.47419559 18.40882234 21.20159729 20.14559603 22.92798042 21.88338089 C25.66204494 24.63491291 28.39970552 27.38281942 31.13841248 30.12973022 C38.92101852 37.93672678 46.69796864 45.749339 54.47045898 53.56640625 C59.23323543 58.35641082 64.00131268 63.14108722 68.77219963 67.92301559 C70.58615432 69.74317258 72.39821001 71.56522417 74.2083149 73.38920975 C76.73791945 75.93804746 79.27364027 78.4806496 81.81079102 81.02197266 C82.92610451 82.15042854 82.92610451 82.15042854 84.06394958 83.30168152 C87.82465949 87.05534971 91.44559928 90.25185843 96 93 C94 94 94 94 90 94 C90 93.34 90 92.68 90 92 C88.515 92.495 88.515 92.495 87 93 C86.93605042 92.28541626 86.87210083 91.57083252 86.80621338 90.83459473 C85.73302719 87.06134066 83.88254695 85.40170917 81.10058594 82.64648438 C80.59153214 82.13684647 80.08247833 81.62720856 79.55799866 81.10212708 C77.87609972 79.42300988 76.18047967 77.75850635 74.484375 76.09375 C73.3086365 74.92547893 72.13378331 73.75631629 70.95977783 72.58630371 C67.86660003 69.50838718 64.76161241 66.44265796 61.6539917 63.3793335 C58.50568075 60.27179567 55.36851251 57.15305575 52.23046875 54.03515625 C46.69805234 48.5410024 41.15592307 43.05681572 35.60662842 37.57971191 C33.06237585 35.06173175 30.53008042 32.53220922 28 30 C26.95508009 28.96352997 25.90923861 27.92798733 24.86206055 26.89379883 C21.79000684 23.85714527 18.72390398 20.8145621 15.65991211 17.76977539 C14.33777366 16.45778332 13.01385909 15.14757883 11.68823242 13.83911133 C9.77055574 11.94556231 7.85929592 10.04574188 5.94921875 8.14453125 C5.3524382 7.55807327 4.75565765 6.9716153 4.14079285 6.36738586 C2.72206345 4.94905011 1.35541417 3.47895971 0 2 C0 1.34 0 0.68 0 0 Z " fill="#4838C4" transform="translate(461,692)"/>
<path d="M0 0 C0.99 0.33 1.98 0.66 3 1 C-19.11 23.11 -41.22 45.22 -64 68 C-64.33 67.34 -64.66 66.68 -65 66 C-63.625 64 -63.625 64 -62 62 C-61.34 62 -60.68 62 -60 62 C-60 61.01 -60 60.02 -60 59 C-58.5625 57.4375 -58.5625 57.4375 -57 56 C-56.67 55.34 -56.34 54.68 -56 54 C-53.4375 53.375 -53.4375 53.375 -51 53 C-51 51.68 -51 50.36 -51 49 C-50.195625 48.731875 -49.39125 48.46375 -48.5625 48.1875 C-47.716875 47.795625 -46.87125 47.40375 -46 47 C-45.67 46.01 -45.34 45.02 -45 44 C-43.515 43.505 -43.515 43.505 -42 43 C-40.95884159 41.69855198 -39.96113866 40.36161311 -39 39 C-37.4375 37.25 -37.4375 37.25 -36 36 C-35.34 36 -34.68 36 -34 36 C-34 35.34 -34 34.68 -34 34 C-31.625 31.375 -31.625 31.375 -29 29 C-28.34 29 -27.68 29 -27 29 C-27 28.34 -27 27.68 -27 27 C-26.01 26.34 -25.02 25.68 -24 25 C-23.34 24.01 -22.68 23.02 -22 22 C-21.34 21.67 -20.68 21.34 -20 21 C-19.896875 20.360625 -19.79375 19.72125 -19.6875 19.0625 C-19.460625 18.381875 -19.23375 17.70125 -19 17 C-17.35448038 16.28272222 -15.68577711 15.61674772 -14 15 C-13.34 14.01 -12.68 13.02 -12 12 C-11.34 12 -10.68 12 -10 12 C-9.8453125 11.0409375 -9.8453125 11.0409375 -9.6875 10.0625 C-9.3471875 9.0415625 -9.3471875 9.0415625 -9 8 C-8.01 7.67 -7.02 7.34 -6 7 C-4.34362312 5.36955876 -4.34362312 5.36955876 -2.8125 3.4375 C-2.28269531 2.79683594 -1.75289062 2.15617188 -1.20703125 1.49609375 C-0.80871094 1.00238281 -0.41039062 0.50867188 0 0 Z " fill="#4A3AC6" transform="translate(583,543)"/>
<path d="M0 0 C2.5654594 2.5654594 2.54046087 4.47686668 3 8 C4.32 8 5.64 8 7 8 C7.33 10.31 7.66 12.62 8 15 C8.66 15 9.32 15 10 15 C10.226875 15.969375 10.45375 16.93875 10.6875 17.9375 C12.24283876 23.42034885 14.95420446 28.95420446 19 33 C19.33 33.99 19.66 34.98 20 36 C20.66 36.33 21.32 36.66 22 37 C23.05464649 38.9717304 24.04605164 40.97762948 25 43 C26.8505842 46.77827608 28.78873212 50.41985201 31 54 C26.7903216 52.47796525 24.76887872 49.41722906 22.3125 45.875 C21.88187256 45.26333984 21.45124512 44.65167969 21.00756836 44.02148438 C13.65512236 33.36708995 7.38147374 21.77871611 2.3125 9.875 C1.65701172 8.35519531 1.65701172 8.35519531 0.98828125 6.8046875 C0 4 0 4 0 0 Z " fill="#A9A0E7" transform="translate(122,793)"/>
<path d="M0 0 C0.66 0.33 1.32 0.66 2 1 C1.21238281 1.58265625 0.42476562 2.1653125 -0.38671875 2.765625 C-22.39384065 19.24794642 -38.94734217 38.77580268 -52 63 C-53 60 -53 60 -51.953125 57.64453125 C-50.00516069 54.40537041 -48.03365826 51.18586532 -46 48 C-45.60731934 47.37834961 -45.21463867 46.75669922 -44.81005859 46.11621094 C-37.9317832 35.33816266 -29.98385452 26.0718554 -21 17 C-20.40074707 16.38753418 -19.80149414 15.77506836 -19.18408203 15.14404297 C-13.54085862 9.41892382 -7.29816908 3.53850622 0 0 Z " fill="#F8F4FA" transform="translate(184,146)"/>
<path d="M0 0 C0.33 0 0.66 0 1 0 C1.17371952 6.26631124 0.69248611 11.78553429 -0.75 17.875 C-0.93046875 18.6602002 -1.1109375 19.44540039 -1.296875 20.25439453 C-2.52836554 25.44440022 -4.03005854 30.43120218 -6 35.39453125 C-7.5280135 39.37572267 -8.68281651 43.47359777 -9.875 47.56640625 C-11.2035662 50.44035327 -12.14507335 50.84089978 -15 52 C-16.26804566 54.0335948 -16.26804566 54.0335948 -17 56 C-16.55999803 52.58998476 -15.51361977 49.83025796 -14.0625 46.75 C-11.99092272 42.26786006 -10.87064187 37.84580936 -10 33 C-9.34 33 -8.68 33 -8 33 C-7.67 31.35 -7.34 29.7 -7 28 C-6.34 28 -5.68 28 -5 28 C-4.87753906 26.8965625 -4.75507812 25.793125 -4.62890625 24.65625 C-3.99067194 19.55037555 -2.97359574 14.53769521 -1.9375 9.5 C-1.75123047 8.5821875 -1.56496094 7.664375 -1.37304688 6.71875 C-0.91801873 4.47861146 -0.46028733 2.23906274 0 0 Z " fill="#BAB3EB" transform="translate(910,756)"/>
<path d="M0 0 C0.99 0 1.98 0 3 0 C2.5 1.9375 2.5 1.9375 1 4 C-4.7022695 4.99619865 -10.33250565 5.1579501 -16.109375 5.2109375 C-17.8515718 5.23901209 -19.59375917 5.26767659 -21.3359375 5.296875 C-24.03873358 5.33795985 -26.74135483 5.3749154 -29.44433594 5.40136719 C-39.70338482 5.51006738 -49.17236408 5.74167967 -59 9 C-58 7 -58 7 -55.9609375 6.21875 C-55.10757813 5.9815625 -54.25421875 5.744375 -53.375 5.5 C-52.11816406 5.14421875 -52.11816406 5.14421875 -50.8359375 4.78125 C-49.90007813 4.5234375 -48.96421875 4.265625 -48 4 C-46.98558838 3.65791504 -45.97117676 3.31583008 -44.92602539 2.96337891 C-40.40729718 1.67730656 -36.01540165 1.7487059 -31.34765625 1.8046875 C-30.44752304 1.8075174 -29.54738983 1.81034729 -28.61997986 1.81326294 C-25.7673468 1.82438722 -22.91503689 1.84947717 -20.0625 1.875 C-18.11914518 1.88503983 -16.17578541 1.89416392 -14.23242188 1.90234375 C-9.48815824 1.92430112 -4.74413376 1.95877699 0 2 C0 1.34 0 0.68 0 0 Z " fill="#5949CB" transform="translate(651,530)"/>
<path d="M0 0 C0 0.99 0 1.98 0 3 C-4.03135226 6.93302659 -7.77351313 8.98981274 -13 11 C-13.66 11.33 -14.32 11.66 -15 12 C-20.39055043 13.03223306 -25.52377992 13 -31 13 C-31.33 13.99 -31.66 14.98 -32 16 C-32.70125 16.06058594 -33.4025 16.12117187 -34.125 16.18359375 C-39.76817235 16.68197174 -45.38364117 17.25821676 -51 18 C-48.03317316 15.03317316 -44.3474742 14.72948546 -40.37109375 13.828125 C-38.59555192 13.40688684 -36.82016623 12.9849901 -35.04492188 12.5625 C-32.25127409 11.90568855 -29.45668024 11.25438174 -26.65893555 10.61523438 C-12.30046247 7.61642319 -12.30046247 7.61642319 0 0 Z " fill="#604ECB" transform="translate(441,663)"/>
<path d="M0 0 C1.5 1.3125 1.5 1.3125 3 3 C3 3.99 3 4.98 3 6 C3.66 6 4.32 6 5 6 C5.144375 6.78375 5.28875 7.5675 5.4375 8.375 C5.87798925 10.96421018 5.87798925 10.96421018 7 13 C6.34 13 5.68 13 5 13 C5 35.44 5 57.88 5 81 C4.67 81 4.34 81 4 81 C3.98969254 80.27718338 3.97938507 79.55436676 3.96876526 78.80964661 C3.87009731 71.94119163 3.76749572 65.072805 3.66066074 58.20447254 C3.60589202 54.67483504 3.55255506 51.14518891 3.50268555 47.61547852 C3.44506322 43.54175357 3.38086216 39.46815385 3.31640625 35.39453125 C3.29969376 34.1492012 3.28298126 32.90387115 3.26576233 31.62080383 C3.05817606 15.62405117 3.05817606 15.62405117 0 0 Z " fill="#3625BF" transform="translate(701,571)"/>
<path d="M0 0 C5.54119946 0.33925711 10.49902063 1.67700831 15.75 3.4375 C16.7246521 3.7636731 16.7246521 3.7636731 17.71899414 4.09643555 C20.93257227 5.20083066 24.01125748 6.37732414 27 8 C27 8.66 27 9.32 27 10 C27.556875 10.17015625 28.11375 10.3403125 28.6875 10.515625 C34.09590609 12.23315937 38.98062896 14.35342255 44 17 C43.67 17.66 43.34 18.32 43 19 C41.06087416 18.21232408 39.12375234 17.4197133 37.1875 16.625 C36.10855469 16.18414062 35.02960937 15.74328125 33.91796875 15.2890625 C31 14 31 14 28 12 C26.34450469 11.61500109 24.6777567 11.27206865 23 11 C23 10.34 23 9.68 23 9 C22.01 9.33 21.02 9.66 20 10 C20 9.34 20 8.68 20 8 C18.35 8 16.7 8 15 8 C15 7.01 15 6.02 15 5 C14.16855469 4.80664062 13.33710937 4.61328125 12.48046875 4.4140625 C10.85044922 4.02347656 10.85044922 4.02347656 9.1875 3.625 C8.10855469 3.36976562 7.02960937 3.11453125 5.91796875 2.8515625 C3 2 3 2 0 0 Z " fill="#BFA0F9" transform="translate(780,121)"/>
<path d="M0 0 C0.33 0 0.66 0 1 0 C1.02505615 0.76554199 1.0501123 1.53108398 1.07592773 2.31982422 C1.19303454 5.83833931 1.31523405 9.35666055 1.4375 12.875 C1.47681641 14.07898438 1.51613281 15.28296875 1.55664062 16.5234375 C1.77476875 22.69814146 2.09158195 28.7902597 2.89868164 34.91845703 C3.00782536 37.16076876 2.61311584 38.85240397 2 41 C1.93543121 42.41534778 1.91388961 43.83337689 1.9375 45.25 C1.958125 46.4875 1.97875 47.725 2 49 C1.01 49.495 1.01 49.495 0 50 C-0.68472665 51.88764903 -0.68472665 51.88764903 -1.125 54.0625 C-1.29257812 54.79597656 -1.46015625 55.52945313 -1.6328125 56.28515625 C-1.75398437 56.85105469 -1.87515625 57.41695312 -2 58 C-2.33 58 -2.66 58 -3 58 C-2.8547445 56.22911917 -2.70875402 54.45829864 -2.5625 52.6875 C-2.48128906 51.70136719 -2.40007813 50.71523438 -2.31640625 49.69921875 C-2.14714746 47.72035369 -1.97241104 45.74170298 -1.76147461 43.7668457 C-0.84108936 34.79760126 -0.66160795 25.81981023 -0.4375 16.8125 C-0.39420212 15.17642374 -0.3505847 13.54035591 -0.30664062 11.90429688 C-0.20074659 7.93628532 -0.09916477 3.96818519 0 0 Z " fill="#5344CA" transform="translate(756,674)"/>
<path d="M0 0 C23.1 0 46.2 0 70 0 C65.56182077 2.21908961 62.34096307 2.24186447 57.53515625 2.16015625 C56.70600204 2.15495468 55.87684784 2.14975311 55.02256775 2.14439392 C52.36903236 2.12661211 49.71588604 2.0955257 47.0625 2.0625 C43.59508097 2.02560915 40.12769806 1.99527452 36.66015625 1.97265625 C35.8258609 1.96706696 34.99156555 1.96147766 34.13198853 1.95571899 C27.37762512 1.93926185 20.72213113 2.30545397 14 3 C14 2.67 14 2.34 14 2 C7.07 1.505 7.07 1.505 0 1 C0 0.67 0 0.34 0 0 Z " fill="#915BF9" transform="translate(284,113)"/>
<path d="M0 0 C0.66 0.33 1.32 0.66 2 1 C-2.99625096 4.84326997 -7.97590804 8.06703525 -13.71875 10.64453125 C-23.84160917 15.21928491 -30.62647024 21.79694815 -38 30 C-38.33 29.01 -38.66 28.02 -39 27 C-36.00576746 23.88599816 -32.81332279 21.11550878 -29.48828125 18.3671875 C-27.87617982 17.04914224 -27.87617982 17.04914224 -27 15 C-26.34 15 -25.68 15 -25 15 C-24.34 13.35 -23.68 11.7 -23 10 C-22.67 10.66 -22.34 11.32 -22 12 C-20.18408626 11.21619539 -18.37234593 10.42271553 -16.5625 9.625 C-15.55316406 9.18414063 -14.54382813 8.74328125 -13.50390625 8.2890625 C-10.87856453 7.24923714 -10.87856453 7.24923714 -10 5 C-7.68020619 3.96898053 -5.34570085 2.97063483 -3 2 C-2.01 1.34 -1.02 0.68 0 0 Z " fill="#5647CB" transform="translate(736,681)"/>
<path d="M0 0 C0.99 0.33 1.98 0.66 3 1 C-6.24 10.24 -15.48 19.48 -25 29 C-25.33 28.01 -25.66 27.02 -26 26 C-25.34 26 -24.68 26 -24 26 C-23.67 24.35 -23.34 22.7 -23 21 C-21.68 21 -20.36 21 -19 21 C-19 20.01 -19 19.02 -19 18 C-18.01 18 -17.02 18 -16 18 C-16 17.01 -16 16.02 -16 15 C-15.34 15 -14.68 15 -14 15 C-14 14.34 -14 13.68 -14 13 C-12.5498829 11.74762614 -11.09372928 10.50079426 -9.59375 9.30859375 C-7.82407293 7.90509072 -7.82407293 7.90509072 -5.75 5.6875 C-4 4 -4 4 -2 4 C-2 3.34 -2 2.68 -2 2 C-1.34 2 -0.68 2 0 2 C0 1.34 0 0.68 0 0 Z " fill="#4D3EC7" transform="translate(512,614)"/>
<path d="M0 0 C3.82843604 2.01175779 7.17912382 4.47473483 10.453125 7.2890625 C6.69157762 7.2890625 4.76580332 6.04283337 1.453125 4.2890625 C0.339375 3.7321875 -0.774375 3.1753125 -1.921875 2.6015625 C-2.788125 2.1684375 -3.654375 1.7353125 -4.546875 1.2890625 C-4.876875 1.9490625 -5.206875 2.6090625 -5.546875 3.2890625 C-6.206875 2.2990625 -6.866875 1.3090625 -7.546875 0.2890625 C-8.866875 0.2890625 -10.186875 0.2890625 -11.546875 0.2890625 C-11.546875 -0.3709375 -11.546875 -1.0309375 -11.546875 -1.7109375 C-14.13049341 -1.23326851 -16.71376838 -0.75385958 -19.296875 -0.2734375 C-20.02648437 -0.13873047 -20.75609375 -0.00402344 -21.5078125 0.13476562 C-24.88234175 0.76365517 -28.22322194 1.43228423 -31.546875 2.2890625 C-24.22978288 -6.18335995 -9.23093697 -3.84161748 0 0 Z " fill="#5141C7" transform="translate(709.546875,545.7109375)"/>
<path d="M0 0 C0.66 1.32 1.32 2.64 2 4 C0.02 4.66 -1.96 5.32 -4 6 C-4 6.99 -4 7.98 -4 9 C-4.66 9 -5.32 9 -6 9 C-6.103125 9.598125 -6.20625 10.19625 -6.3125 10.8125 C-7.12378323 13.39385573 -7.88112703 14.33517123 -10 16 C-10.73089844 16.23203125 -11.46179688 16.4640625 -12.21484375 16.703125 C-16.02523203 18.47738714 -18.43629651 21.11250011 -21.3125 24.125 C-21.86228516 24.68832031 -22.41207031 25.25164063 -22.97851562 25.83203125 C-24.32595438 27.21462058 -25.66394273 28.60640916 -27 30 C-27.66 29.67 -28.32 29.34 -29 29 C-19.43 19.43 -9.86 9.86 0 0 Z " fill="#4A3BC7" transform="translate(647,719)"/>
<path d="M0 0 C0 3 0 3 -1.21484375 4.5756073 C-1.78332031 5.13742203 -2.35179687 5.69923676 -2.9375 6.27807617 C-3.89849609 7.23873238 -3.89849609 7.23873238 -4.87890625 8.21879578 C-5.57886719 8.90327286 -6.27882813 9.58774994 -7 10.29296875 C-7.71027344 10.99899734 -8.42054688 11.70502594 -9.15234375 12.43244934 C-11.42796996 14.69125019 -13.71379365 16.93941307 -16 19.1875 C-17.54234842 20.71480664 -19.08402406 22.242793 -20.625 23.77148438 C-24.40888829 27.52225221 -28.20120662 31.26433217 -32 35 C-32.33 34.34 -32.66 33.68 -33 33 C-32.34 32.01 -31.68 31.02 -31 30 C-30.34 30 -29.68 30 -29 30 C-29 29.34 -29 28.68 -29 28 C-27.56580496 26.7659252 -26.12554257 25.53784628 -24.6484375 24.35546875 C-22.26598366 22.3964368 -20.15185707 20.20703289 -18 18 C-16.63875 16.7625 -16.63875 16.7625 -15.25 15.5 C-12.88115341 12.86794823 -12.29758642 11.47184157 -12 8 C-11.319375 7.979375 -10.63875 7.95875 -9.9375 7.9375 C-5.53084593 6.53112104 -3.05237626 3.3690493 0 0 Z " fill="#5748CC" transform="translate(666,741)"/>
<path d="M0 0 C0.33 0 0.66 0 1 0 C1 7.92 1 15.84 1 24 C2.8975 23.401875 4.795 22.80375 6.75 22.1875 C7.81734375 21.85105469 8.8846875 21.51460937 9.984375 21.16796875 C12.79040787 20.08117623 14.71986376 18.93147463 17 17 C17.66 17.33 18.32 17.66 19 18 C18.375 19.875 18.375 19.875 17 22 C15.02111039 22.72693904 13.02045442 23.39816251 11 24 C10.67 24.66 10.34 25.32 10 26 C9.01 26.33 8.02 26.66 7 27 C6.67 26.67 6.34 26.34 6 26 C5.21625 26.04125 4.4325 26.0825 3.625 26.125 C1 26 1 26 -0.8125 24.5 C-1.204375 24.005 -1.59625 23.51 -2 23 C-1.67 22.34 -1.34 21.68 -1 21 C-0.84824451 19.40737934 -0.75099675 17.80935144 -0.68359375 16.2109375 C-0.64169922 15.26992188 -0.59980469 14.32890625 -0.55664062 13.359375 C-0.51732422 12.37453125 -0.47800781 11.3896875 -0.4375 10.375 C-0.39431641 9.38242187 -0.35113281 8.38984375 -0.30664062 7.3671875 C-0.20038931 4.91160162 -0.09835036 2.45591297 0 0 Z " fill="#5141C8" transform="translate(714,630)"/>
<path d="M0 0 C0 3.70871733 -1.32630881 4.70164981 -3.703125 7.37890625 C-5.22553059 9.15747897 -5.22553059 9.15747897 -6.5625 12.25 C-8.24165985 15.46230579 -8.87887982 15.46361382 -12 17 C-13.94540315 18.5052421 -15.86037127 20.0503094 -17.75 21.625 C-18.73484375 22.44226563 -19.7196875 23.25953125 -20.734375 24.1015625 C-21.48203125 24.72804688 -22.2296875 25.35453125 -23 26 C-23.66 25.67 -24.32 25.34 -25 25 C-16.75 16.75 -8.5 8.5 0 0 Z " fill="#5748CA" transform="translate(541,563)"/>
<path d="M0 0 C-1.051875 0.5775 -2.10375 1.155 -3.1875 1.75 C-5.51666748 3.07360321 -7.46073211 4.37083316 -9.5625 6.0625 C-12.95021441 8.75529863 -16.2904079 10.66642105 -20.5625 11.5 C-23.15787474 11.89060197 -23.15787474 11.89060197 -25.6875 13.625 C-26.450625 14.07875 -27.21375 14.5325 -28 15 C-28.66 14.67 -29.32 14.34 -30 14 C-24.59583071 10.13360246 -18.98214181 6.80791721 -13.125 3.6875 C-12.47072021 3.33816406 -11.81644043 2.98882812 -11.14233398 2.62890625 C-3.76524303 -1.25508101 -3.76524303 -1.25508101 0 0 Z " fill="#D4BFFA" transform="translate(216,131)"/>
<path d="M0 0 C0.33 0.66 0.66 1.32 1 2 C0.3125 4.0625 0.3125 4.0625 -1 6 C-3.125 6.75 -3.125 6.75 -5 7 C-5.061875 7.556875 -5.12375 8.11375 -5.1875 8.6875 C-6.34151307 11.97199875 -8.47400137 13.65442984 -11 16 C-11.53625 16.53625 -12.0725 17.0725 -12.625 17.625 C-14.08333333 19.08333333 -15.54166667 20.54166667 -17 22 C-17.99 21.34 -18.98 20.68 -20 20 C-13.4 13.4 -6.8 6.8 0 0 Z " fill="#5244C9" transform="translate(668,698)"/>
<path d="M0 0 C2.46230395 3.69345592 2.38392635 6.5922313 2.375 10.875 C2.37411377 11.63006836 2.37322754 12.38513672 2.37231445 13.16308594 C2.18404506 22.21913053 -0.12141647 30.33964535 -5 38 C-5.33 37.34 -5.66 36.68 -6 36 C-5.26660156 34.33032227 -5.26660156 34.33032227 -4.140625 32.25390625 C-1.23594745 26.01584873 -1.09644924 19.72573971 -0.75 12.9375 C-0.67265625 11.69033203 -0.5953125 10.44316406 -0.515625 9.15820312 C-0.32851874 6.10603223 -0.15704915 3.05383996 0 0 Z " fill="#5140C9" transform="translate(734,577)"/>
<path d="M0 0 C0.598125 0.350625 1.19625 0.70125 1.8125 1.0625 C4.10813214 2.33304698 4.10813214 2.33304698 7 1 C7 1.66 7 2.32 7 3 C7.66 3.33 8.32 3.66 9 4 C9 4.66 9 5.32 9 6 C11.64 6.33 14.28 6.66 17 7 C17 7.99 17 8.98 17 10 C17.94978897 12.15028304 17.94978897 12.15028304 19 14 C18.45472656 13.57847656 17.90945313 13.15695312 17.34765625 12.72265625 C12.19379672 8.97839933 7.56205242 6.17498374 1 7 C-2.04753335 8.74944076 -2.04753335 8.74944076 -4 11 C-4 10.01 -4 9.02 -4 8 C-3.34 7.54625 -2.68 7.0925 -2 6.625 C-1.34 6.08875 -0.68 5.5525 0 5 C0.33425735 2.37374861 0.33425735 2.37374861 0 0 Z " fill="#5747C9" transform="translate(682,557)"/>
<path d="M0 0 C-2.55277419 2.79233071 -4.22360282 3.48967606 -8 4 C-8 3.34 -8 2.68 -8 2 C-10.95876769 2.45566238 -13.91706758 2.91396636 -16.875 3.375 C-17.74455322 3.5100293 -18.61410645 3.64505859 -19.51000977 3.78417969 C-24.74735033 4.60883434 -29.93109994 5.52977349 -35.08984375 6.765625 C-37.30259 7.03712761 -38.86630016 6.58390747 -41 6 C-34.02618272 3.68549162 -27.21961228 2.24115961 -19.9375 1.3125 C-19.00873047 1.18294922 -18.07996094 1.05339844 -17.12304688 0.91992188 C-11.36358803 0.15603575 -5.8087479 -0.12485538 0 0 Z " fill="#F9F6FC" transform="translate(284,114)"/>
<path d="M0 0 C1.43012122 2.86024243 0.47292818 4.3564248 -0.4375 7.375 C-1.49265455 10.885873 -2 13.27992561 -2 17 C-1.34 16.67 -0.68 16.34 0 16 C1.67654729 16.27942455 3.34608154 16.60828247 5 17 C4.34 17.99 3.68 18.98 3 20 C0.5625 20.4375 0.5625 20.4375 -2 20 C-4.63616781 17.72744155 -4.97288714 16.20140982 -5.4375 12.75 C-4.90573866 8.19204567 -3.34846043 3.34846043 0 0 Z " fill="#4D3CC6" transform="translate(672,552)"/>
<path d="M0 0 C0.83595703 0.00451172 1.67191406 0.00902344 2.53320312 0.01367188 C4.58466649 0.02539452 6.63609273 0.04332797 8.6875 0.0625 C8.6875 0.3925 8.6875 0.7225 8.6875 1.0625 C7.07294922 1.10117187 7.07294922 1.10117187 5.42578125 1.140625 C-7.01169577 1.56827054 -18.12745318 3.07703345 -28.41015625 10.6953125 C-30.30522556 12.05727196 -32.2020054 13.07540898 -34.3125 14.0625 C-34.3125 13.0725 -34.3125 12.0825 -34.3125 11.0625 C-30.09027778 8.0625 -30.09027778 8.0625 -27.3125 8.0625 C-27.3125 7.4025 -27.3125 6.7425 -27.3125 6.0625 C-25.25200145 5.24493762 -23.18901147 4.43365266 -21.125 3.625 C-19.97644531 3.17253906 -18.82789063 2.72007812 -17.64453125 2.25390625 C-11.62989134 0.1033023 -6.32260598 -0.06487283 0 0 Z " fill="#4430C6" transform="translate(689.3125,514.9375)"/>
<path d="M0 0 C2.7972908 2.06756277 3.02692273 3.14440371 3.6875 6.6875 C3.790625 7.780625 3.89375 8.87375 4 10 C2 8 0 6 -2 4 C-5.68104777 3.39901261 -8.06005027 3.33899218 -11.171875 5.52734375 C-12.57488065 6.77929588 -13.95274601 8.0601361 -15.30078125 9.37109375 C-17 11 -17 11 -19 12 C-18.67 10.68 -18.34 9.36 -18 8 C-17.34 8 -16.68 8 -16 8 C-16 7.34 -16 6.68 -16 6 C-14.25073383 3.49018333 -12.87391479 2.17983084 -9.8359375 1.5546875 C-8.26723326 1.39628414 -6.69503617 1.26867836 -5.12109375 1.17578125 C-2.81127837 1.06864604 -2.81127837 1.06864604 0 0 Z " fill="#976BF8" transform="translate(750,387)"/>
<path d="M0 0 C3.50023856 0.14042495 7.00012399 0.28833226 10.5 0.4375 C11.48226562 0.47681641 12.46453125 0.51613281 13.4765625 0.55664062 C25.0914992 1.05995455 25.0914992 1.05995455 30 2 C30.99 3.485 30.99 3.485 32 5 C31.01 5.33 30.02 5.66 29 6 C28.44699219 5.70351562 27.89398437 5.40703125 27.32421875 5.1015625 C23.93470145 3.4951022 20.49961644 3.52851295 16.8125 3.375 C16.05525635 3.33705322 15.2980127 3.29910645 14.51782227 3.26000977 C9.34123606 3.01509243 4.18240924 2.90577438 -1 3 C-0.67 2.01 -0.34 1.02 0 0 Z " fill="#9A69F9" transform="translate(715,113)"/>
<path d="M0 0 C0 4.19865204 -2.21014637 6.12147131 -5 9 C-6.83688874 10.65447253 -8.71432758 12.25409716 -10.59765625 13.85546875 C-15.61787545 18.33693272 -20.2786393 23.20781889 -25 28 C-25.66 27.67 -26.32 27.34 -27 27 C-18.09 18.09 -9.18 9.18 0 0 Z " fill="#EFEBF8" transform="translate(682,727)"/>
<path d="M0 0 C1 3 1 3 0.1875 5.19140625 C-0.204375 5.97386719 -0.59625 6.75632813 -1 7.5625 C-2.18955305 9.85923547 -2.18955305 9.85923547 -3 12 C-2.67 12.66 -2.34 13.32 -2 14 C-2.93578995 16.35981813 -3.93347808 18.69631264 -5 21 C-5.66 21 -6.32 21 -7 21 C-6.67 22.65 -6.34 24.3 -6 26 C-6.99 25.67 -7.98 25.34 -9 25 C-7.90850914 18.12073525 -6.09830611 12.23222492 -3 6 C-2.4225 4.824375 -1.845 3.64875 -1.25 2.4375 C-0.8375 1.633125 -0.425 0.82875 0 0 Z " fill="#CEBBF8" transform="translate(130,209)"/>
<path d="M0 0 C0.66 0.66 1.32 1.32 2 2 C1.48050781 2.44730469 0.96101563 2.89460937 0.42578125 3.35546875 C-3.52611262 6.78141741 -7.34766278 10.25154865 -11 14 C-12.10284983 15.10548193 -13.20704568 16.20962249 -14.3125 17.3125 C-15.199375 18.199375 -16.08625 19.08625 -17 20 C-17.99 19.67 -18.98 19.34 -20 19 C-6.3667426 5.18223235 -6.3667426 5.18223235 0 0 Z " fill="#9C6FF8" transform="translate(175,154)"/>
<path d="M0 0 C2.475 0.99 2.475 0.99 5 2 C5 2.66 5 3.32 5 4 C5.66 4 6.32 4 7 4 C8.62109375 5.609375 8.62109375 5.609375 10.4375 7.75 C11.03433594 8.44609375 11.63117188 9.1421875 12.24609375 9.859375 C13.89081098 11.86673589 15.46126108 13.91070312 17 16 C12.71193127 15.52354792 10.73352513 14.34097516 8 11 C8 10.34 8 9.68 8 9 C7.4225 8.773125 6.845 8.54625 6.25 8.3125 C3.40260191 6.65151778 1.87932807 4.68475439 0 2 C0 1.34 0 0.68 0 0 Z " fill="#AFA7E9" transform="translate(153,847)"/>
<path d="M0 0 C0.33 0.66 0.66 1.32 1 2 C-4.61998691 4.40584888 -10.24449444 6.80916745 -16 8.875 C-16.680625 9.11992188 -17.36125 9.36484375 -18.0625 9.6171875 C-20.34018191 10.06721336 -21.81279183 9.71279552 -24 9 C-17.87294955 5.56885175 -11.75242779 3.65295436 -4.9765625 1.83203125 C-2.1018094 1.13003656 -2.1018094 1.13003656 0 0 Z " fill="#6152D5" transform="translate(808,891)"/>
<path d="M0 0 C0.70125 0.144375 1.4025 0.28875 2.125 0.4375 C5.07556141 1.01478375 8.03270151 1.51695141 11 2 C11 2.99 11 3.98 11 5 C15.07369424 7.03684712 17.58937864 7.0257259 22 6 C21.9071875 7.11375 21.9071875 7.11375 21.8125 8.25 C22.03094296 11.45383006 22.90250005 12.64031256 25 15 C21.77133613 13.47577031 18.8566083 11.64771187 15.875 9.6875 C10.75246651 6.39198047 5.5072927 3.59236988 0 1 C0 0.67 0 0.34 0 0 Z " fill="#5544C9" transform="translate(711,519)"/>
<path d="M0 0 C0.33 0 0.66 0 1 0 C0.66815916 9.83908078 -1.2136397 18.63005352 -4 28 C-5.4049404 24.10939581 -4.69513239 20.76907638 -4.0625 16.75 C-3.86785156 15.48671875 -3.67320312 14.2234375 -3.47265625 12.921875 C-3.31667969 11.95765625 -3.16070313 10.9934375 -3 10 C-2.34 10 -1.68 10 -1 10 C-0.67 6.7 -0.34 3.4 0 0 Z " fill="#5F4ED5" transform="translate(909,755)"/>
<path d="M0 0 C2.33944736 0.28730055 4.6739143 0.61936779 7 1 C-1.43692576 5.68506487 -12.64195241 4.11229657 -22 4 C-22 3.67 -22 3.34 -22 3 C-21.05362671 2.91697632 -21.05362671 2.91697632 -20.08813477 2.83227539 C-17.2458232 2.5803188 -14.40417781 2.32150231 -11.5625 2.0625 C-10.56927734 1.97548828 -9.57605469 1.88847656 -8.55273438 1.79882812 C-7.13637695 1.66831055 -7.13637695 1.66831055 -5.69140625 1.53515625 C-4.81685791 1.456604 -3.94230957 1.37805176 -3.04125977 1.29711914 C-1.00985544 1.20914952 -1.00985544 1.20914952 0 0 Z " fill="#5948D3" transform="translate(747,906)"/>
<path d="M0 0 C0 3 0 3 -1.3125 4.375 C-1.869375 4.91125 -2.42625 5.4475 -3 6 C-3.474375 6.804375 -3.94875 7.60875 -4.4375 8.4375 C-6.06868023 11.11263558 -7.53583348 13.05853547 -10 15 C-11.32 14.67 -12.64 14.34 -14 14 C-9.38 9.38 -4.76 4.76 0 0 Z " fill="#8B80E0" transform="translate(868,848)"/>
<path d="M0 0 C2.4842662 2.32665414 4.38050339 4.82693595 6.3125 7.625 C6.91835937 8.5015625 7.52421875 9.378125 8.1484375 10.28125 C10.79540069 14.16793013 13.41130692 18.07428962 16 22 C11.43520068 20.46070721 9.4655861 16.86381996 6.875 13.0625 C6.21177734 12.11213867 6.21177734 12.11213867 5.53515625 11.14257812 C0 3.19101681 0 3.19101681 0 0 Z " fill="#F5F4FA" transform="translate(137,825)"/>
<path d="M0 0 C0.66 0 1.32 0 2 0 C2.02726927 2.35424675 2.04696719 4.70816962 2.0625 7.0625 C2.07410156 8.37347656 2.08570313 9.68445313 2.09765625 11.03515625 C2.00452335 14.8163519 1.61448726 18.27920707 1 22 C0.67 22 0.34 22 0 22 C-1.33257403 7.40318907 -1.33257403 7.40318907 0 0 Z " fill="#F3F0FB" transform="translate(754,694)"/>
<path d="M0 0 C0.99 0.33 1.98 0.66 3 1 C0.98341817 2.58900583 -1.03796886 4.17117615 -3.0625 5.75 C-3.62388672 6.1934375 -4.18527344 6.636875 -4.76367188 7.09375 C-8.67104086 10.13033389 -12.55579223 12.80190444 -17 15 C-17.99 14.67 -18.98 14.34 -20 14 C-18.89140625 13.32453125 -17.7828125 12.6490625 -16.640625 11.953125 C-15.17690448 11.05237391 -13.7133727 10.15131606 -12.25 9.25 C-11.52039063 8.8065625 -10.79078125 8.363125 -10.0390625 7.90625 C-6.26657758 5.57416841 -2.97352553 3.34912876 0 0 Z " fill="#F5F1FB" transform="translate(743,677)"/>
<path d="M0 0 C3.44370946 0.58835577 5.16493074 1.76126993 7.671875 4.16015625 C8.33574219 4.78857422 8.99960937 5.41699219 9.68359375 6.06445312 C10.36550781 6.72380859 11.04742188 7.38316406 11.75 8.0625 C12.44738281 8.72572266 13.14476562 9.38894531 13.86328125 10.07226562 C15.58184749 11.70843485 17.29367649 13.35108255 19 15 C18.34 15.66 17.68 16.32 17 17 C16.34 16.154375 15.68 15.30875 15 14.4375 C12.25236189 11.12624381 9.13910785 8.39943316 5.87109375 5.61328125 C3.81073837 3.83681618 1.88376398 1.96225415 0 0 Z " fill="#F1EBF9" transform="translate(849,155)"/>
<path d="M0 0 C8.58 0 17.16 0 26 0 C26.33 0.66 26.66 1.32 27 2 C20.565 2.495 20.565 2.495 14 3 C14 2.67 14 2.34 14 2 C7.07 1.505 7.07 1.505 0 1 C0 0.67 0 0.34 0 0 Z " fill="#BE9EF9" transform="translate(284,113)"/>
<path d="M0 0 C0.578125 1.89453125 0.578125 1.89453125 1 4 C-0.84159673 6.48615558 -2.00470711 7.00156904 -5 8 C-5.268125 8.639375 -5.53625 9.27875 -5.8125 9.9375 C-7 12 -7 12 -10.125 13.25 C-11.07375 13.4975 -12.0225 13.745 -13 14 C-8.88380164 9.08064098 -4.59589638 4.47352044 0 0 Z " fill="#4C3DC8" transform="translate(695,671)"/>
<path d="M0 0 C1.93719378 -0.05406122 3.87481921 -0.09282025 5.8125 -0.125 C6.89144531 -0.14820313 7.97039063 -0.17140625 9.08203125 -0.1953125 C12 0 12 0 15 2 C15 2.66 15 3.32 15 4 C15.66 4.33 16.32 4.66 17 5 C15.0788127 4.76406472 13.15783275 4.52623764 11.23828125 4.27734375 C9.20450514 4.02534008 7.16480008 3.82240001 5.125 3.625 C2 3 2 3 0 0 Z " fill="#6757CF" transform="translate(693,514)"/>
<path d="M0 0 C0.66 0.66 1.32 1.32 2 2 C-0.31 4.31 -2.62 6.62 -5 9 C-4.67 9.66 -4.34 10.32 -4 11 C-6.31 11.33 -8.62 11.66 -11 12 C-7.49102731 7.81576108 -3.91939465 3.80411834 0 0 Z " fill="#D9D2F2" transform="translate(646,763)"/>
<path d="M0 0 C-2.36292656 2.52588702 -3.66462511 3.88820837 -7 5 C-7.66 4.67 -8.32 4.34 -9 4 C-10.71233688 4.0870204 -12.42175406 4.24097162 -14.125 4.4375 C-15.03507812 4.53933594 -15.94515625 4.64117188 -16.8828125 4.74609375 C-17.93082031 4.87177734 -17.93082031 4.87177734 -19 5 C-16.48768622 2.48768622 -14.62148234 2.21338287 -11.1875 1.375 C-10.14980469 1.11460937 -9.11210937 0.85421875 -8.04296875 0.5859375 C-5.26412163 0.05085782 -2.81823638 -0.11460481 0 0 Z " fill="#6955D4" transform="translate(373,685)"/>
<path d="M0 0 C0.33 0.66 0.66 1.32 1 2 C-0.83072917 2.45768229 -2.66145833 2.91536458 -4.4921875 3.37304688 C-5.23726562 3.55931641 -5.98234375 3.74558594 -6.75 3.9375 C-8.85904948 4.46476237 -10.96809896 4.99202474 -13.07714844 5.51928711 C-14.02895996 5.75723999 -14.02895996 5.75723999 -15 6 C-16.11036621 6.27759155 -16.11036621 6.27759155 -17.24316406 6.56079102 C-17.82291992 6.70572998 -18.40267578 6.85066895 -19 7 C-14.41290699 1.78535681 -6.82871611 -0.71881222 0 0 Z " fill="#5241C6" transform="translate(602,518)"/>
<path d="M0 0 C1.60294922 0.01353516 1.60294922 0.01353516 3.23828125 0.02734375 C4.04652344 0.03894531 4.85476563 0.05054688 5.6875 0.0625 C4.6975 1.5475 4.6975 1.5475 3.6875 3.0625 C0.8989711 3.28357787 -1.65903181 3.34357535 -4.4375 3.25 C-5.19160156 3.23646484 -5.94570313 3.22292969 -6.72265625 3.20898438 C-8.58624127 3.17359985 -10.44945978 3.11979167 -12.3125 3.0625 C-11.9825 2.4025 -11.6525 1.7425 -11.3125 1.0625 C-7.536414 -0.01929761 -3.90752858 -0.04293987 0 0 Z " fill="#D9D2F3" transform="translate(697.3125,771.9375)"/>
<path d="M0 0 C0.66 0.33 1.32 0.66 2 1 C-2.29 5.29 -6.58 9.58 -11 14 C-11 10.37546731 -10.07530387 8.92079805 -8 6 C-7.01 5.67 -6.02 5.34 -5 5 C-4.67 4.34 -4.34 3.68 -4 3 C-3 1 -3 1 0 0 Z " fill="#4B3AC7" transform="translate(474,653)"/>
<path d="M0 0 C3.92055122 2.61370081 4.46211452 5.56934737 5.75 9.875 C5.98332031 10.59558594 6.21664062 11.31617188 6.45703125 12.05859375 C7.60655614 15.7962705 8.17578791 18.27322759 7 22 C6.01658385 19.27229834 5.03814947 16.54297895 4.0625 13.8125 C3.78470703 13.04357422 3.50691406 12.27464844 3.22070312 11.48242188 C1.86499768 7.67664634 0.63433732 4.0067636 0 0 Z " fill="#F8F4FB" transform="translate(896,216)"/>
<path d="M0 0 C0 0.99 0 1.98 0 3 C-1.4609375 4.38671875 -1.4609375 4.38671875 -3.375 5.6875 C-4.31472656 6.34298828 -4.31472656 6.34298828 -5.2734375 7.01171875 C-7 8 -7 8 -9 8 C-9 8.66 -9 9.32 -9 10 C-10.98 10.99 -12.96 11.98 -15 13 C-15 12.01 -15 11.02 -15 10 C-13.62304688 8.74145508 -13.62304688 8.74145508 -11.71875 7.51953125 C-11.04199219 7.07802734 -10.36523438 6.63652344 -9.66796875 6.18164062 C-8.95253906 5.72982422 -8.23710937 5.27800781 -7.5 4.8125 C-6.78457031 4.34908203 -6.06914062 3.88566406 -5.33203125 3.40820312 C-3.56071878 2.2627544 -1.78110873 1.13015589 0 0 Z " fill="#9969F9" transform="translate(194,141)"/>
<path d="M0 0 C0.33 0 0.66 0 1 0 C1.66 5.94 2.32 11.88 3 18 C2.34 18 1.68 18 1 18 C0.67 19.32 0.34 20.64 0 22 C0 14.74 0 7.48 0 0 Z " fill="#4D3CC8" transform="translate(759,578)"/>
<path d="M0 0 C1.65 0 3.3 0 5 0 C5.33 0.66 5.66 1.32 6 2 C5.67 2.99 5.34 3.98 5 5 C5.7425 5.2475 6.485 5.495 7.25 5.75 C10.20124062 7.09147301 11.84814974 8.60905526 14 11 C10.12697862 9.85569823 6.99736561 8.76679902 4 6 C4 5.34 4 4.68 4 4 C3.01 3.67 2.02 3.34 1 3 C0.67 2.01 0.34 1.02 0 0 Z " fill="#967CF1" transform="translate(277,707)"/>
<path d="M0 0 C0 0.99 0 1.98 0 3 C-5.08086796 3.84681133 -9.84828377 4.09038099 -15 4 C-11.2354727 0.2354727 -5.16743168 -0.32296448 0 0 Z " fill="#6552D0" transform="translate(389,681)"/>
<path d="M0 0 C0.33 0 0.66 0 1 0 C1.66 6.27 2.32 12.54 3 19 C2.34 19.33 1.68 19.66 1 20 C0.67 18.02 0.34 16.04 0 14 C-0.33 14 -0.66 14 -1 14 C-1.027193 12.41676312 -1.04648306 10.83338938 -1.0625 9.25 C-1.07410156 8.36828125 -1.08570313 7.4865625 -1.09765625 6.578125 C-1.00826198 4.2181162 -0.66912821 2.25501476 0 0 Z " fill="#6D5FD1" transform="translate(756,665)"/>
<path d="M0 0 C0.33 0.99 0.66 1.98 1 3 C1.66 3.33 2.32 3.66 3 4 C2.34 4 1.68 4 1 4 C1.33 5.32 1.66 6.64 2 8 C0.68 8.33 -0.64 8.66 -2 9 C-2 9.99 -2 10.98 -2 12 C-2.66 12 -3.32 12 -4 12 C-4.33 12.99 -4.66 13.98 -5 15 C-5.33 14.34 -5.66 13.68 -6 13 C-5.10333658 10.75689987 -4.10853317 8.55245679 -3.0625 6.375 C-2.49660156 5.18648437 -1.93070313 3.99796875 -1.34765625 2.7734375 C-0.90292969 1.85820313 -0.45820312 0.94296875 0 0 Z " fill="#5546C8" transform="translate(704,653)"/>
<path d="M0 0 C1.5 1.3125 1.5 1.3125 3 3 C3 3.99 3 4.98 3 6 C3.66 6 4.32 6 5 6 C5.144375 6.78375 5.28875 7.5675 5.4375 8.375 C5.87798925 10.96421018 5.87798925 10.96421018 7 13 C6.01 13 5.02 13 4 13 C4 15.64 4 18.28 4 21 C3.67 21 3.34 21 3 21 C2.92652344 19.7315625 2.92652344 19.7315625 2.8515625 18.4375 C2.43075986 12.05290815 1.80649237 6.14207405 0 0 Z " fill="#5D4BCA" transform="translate(701,571)"/>
<path d="M0 0 C1.74216797 0.02707031 1.74216797 0.02707031 3.51953125 0.0546875 C4.39996094 0.07789063 5.28039062 0.10109375 6.1875 0.125 C6.1875 0.455 6.1875 0.785 6.1875 1.125 C5.00671875 1.32996094 3.8259375 1.53492188 2.609375 1.74609375 C1.05207003 2.01815305 -0.5052209 2.29029268 -2.0625 2.5625 C-2.83980469 2.69720703 -3.61710938 2.83191406 -4.41796875 2.97070312 C-5.17207031 3.10283203 -5.92617188 3.23496094 -6.703125 3.37109375 C-7.39438477 3.49154053 -8.08564453 3.6119873 -8.79785156 3.73608398 C-10.82516117 4.12744416 -12.81444515 4.60589751 -14.8125 5.125 C-10.67132566 0.32995602 -6.10372263 -0.12330753 0 0 Z " fill="#4D3DC6" transform="translate(692.8125,542.875)"/>
<path d="M0 0 C1 2 1 2 0.3125 5.0625 C-1 8 -1 8 -2.8125 8.75 C-3.534375 8.8325 -4.25625 8.915 -5 9 C-6.6744239 9.6469365 -8.34302621 10.30959426 -10 11 C-6.79239749 7.19364503 -3.59253891 3.45436433 0 0 Z " fill="#4B3BC5" transform="translate(552,552)"/>
<path d="M0 0 C0 3.88939843 -1.19737718 4.7649445 -3.75 7.625 C-4.44609375 8.42164063 -5.1421875 9.21828125 -5.859375 10.0390625 C-8.01014951 12.00929755 -9.15547268 12.6284176 -12 13 C-8.19524578 8.43969176 -4.25030379 4.14910608 0 0 Z " fill="#4738C6" transform="translate(681,685)"/>
<path d="M0 0 C0.33 0 0.66 0 1 0 C1 1.65 1 3.3 1 5 C1.99 5.33 2.98 5.66 4 6 C3.67 9.3 3.34 12.6 3 16 C0.30717525 11.96076287 -0.13300939 9.04463848 -0.0625 4.25 C-0.05347656 3.45078125 -0.04445313 2.6515625 -0.03515625 1.828125 C-0.02355469 1.22484375 -0.01195313 0.6215625 0 0 Z " fill="#6251D6" transform="translate(113,751)"/>
<path d="M0 0 C0 0.99 0 1.98 0 3 C-3.68932907 6.6014879 -6.8272645 8.9654529 -12 10 C-12.99 9.34 -13.98 8.68 -15 8 C-14.33613281 7.75765625 -13.67226563 7.5153125 -12.98828125 7.265625 C-8.04268244 5.38846341 -3.92869187 3.66677907 0 0 Z " fill="#5240C6" transform="translate(441,663)"/>
<path d="M0 0 C4.32046898 1.41680244 7.00461199 3.53763785 10.3125 6.625 C11.19550781 7.44226563 12.07851563 8.25953125 12.98828125 9.1015625 C13.65214844 9.72804688 14.31601562 10.35453125 15 11 C11.04119531 11 9.92844812 9.5623921 7 7 C6.484375 6.443125 5.96875 5.88625 5.4375 5.3125 C3.69878222 3.72497507 2.29273506 3.39529915 0 3 C0 2.01 0 1.02 0 0 Z " fill="#5F4AD1" transform="translate(738,500)"/>
<path d="M0 0 C0 3 0 3 -1.609375 5.0078125 C-2.66898438 6.05582031 -2.66898438 6.05582031 -3.75 7.125 C-4.44609375 7.82882812 -5.1421875 8.53265625 -5.859375 9.2578125 C-7.99788242 10.99827657 -9.30910227 11.60000169 -12 12 C-12 10.68 -12 9.36 -12 8 C-11.319375 7.979375 -10.63875 7.95875 -9.9375 7.9375 C-5.53084593 6.53112104 -3.05237626 3.3690493 0 0 Z " fill="#6152CF" transform="translate(666,741)"/>
<path d="M0 0 C-3.0469629 1.69433918 -5.82821466 2.49467112 -9.25 3.125 C-10.58804688 3.37636719 -10.58804688 3.37636719 -11.953125 3.6328125 C-12.96632812 3.81457031 -12.96632812 3.81457031 -14 4 C-14.33 3.01 -14.66 2.02 -15 1 C-13.44033408 0.63355422 -11.87707349 0.28239138 -10.3125 -0.0625 C-9.44238281 -0.25972656 -8.57226562 -0.45695312 -7.67578125 -0.66015625 C-4.83998724 -1.02032279 -2.75210018 -0.70909969 0 0 Z " fill="#9E6EF9" transform="translate(266,118)"/>
<path d="M0 0 C0.74507813 0.00902344 1.49015625 0.01804687 2.2578125 0.02734375 C4.08868059 0.05081642 5.91938238 0.08668475 7.75 0.125 C7.75 0.455 7.75 0.785 7.75 1.125 C5.54355164 1.49072637 3.33471965 1.84208834 1.125 2.1875 C-0.71964844 2.48333984 -0.71964844 2.48333984 -2.6015625 2.78515625 C-6.09573059 3.11063015 -8.84044235 2.87510268 -12.25 2.125 C-8.4084024 -0.44280471 -4.4360825 -0.10188882 0 0 Z " fill="#9764FA" transform="translate(292.25,113.875)"/>
<path d="M0 0 C0.99 0 1.98 0 3 0 C3.33 0.99 3.66 1.98 4 3 C3.01 4.485 3.01 4.485 2 6 C2.33 6.99 2.66 7.98 3 9 C1.5625 11.1875 1.5625 11.1875 0 13 C-1.0161692 8.37078475 -0.83796731 4.65537393 0 0 Z " fill="#6C5DD0" transform="translate(758,597)"/>
<path d="M0 0 C-0.33 0.99 -0.66 1.98 -1 3 C-2.99609375 3.6953125 -2.99609375 3.6953125 -5.4375 4.125 C-8.8273078 4.73123617 -8.8273078 4.73123617 -12 6 C-12 5.01 -12 4.02 -12 3 C-4.71428571 -0.42857143 -4.71428571 -0.42857143 0 0 Z " fill="#A67AFA" transform="translate(245,121)"/>
<path d="M0 0 C3.67033927 3.27708863 5.69281189 6.71522208 8 11 C5.11562221 9.70700306 3.12780579 8.34058637 1 6 C1.33 5.34 1.66 4.68 2 4 C1.34 4 0.68 4 0 4 C0 2.68 0 1.36 0 0 Z " fill="#5E4CCD" transform="translate(271,700)"/>
<path d="M0 0 C3.63 0.66 7.26 1.32 11 2 C11 2.66 11 3.32 11 4 C12.65 4.33 14.3 4.66 16 5 C13.13421241 6.16161779 11.98369837 5.9946154 8.984375 5.00390625 C7.91703125 4.52824219 6.8496875 4.05257812 5.75 3.5625 C4.67234375 3.08941406 3.5946875 2.61632812 2.484375 2.12890625 C1.66453125 1.75636719 0.8446875 1.38382813 0 1 C0 0.67 0 0.34 0 0 Z " fill="#5E4ED3" transform="translate(221,894)"/>
<path d="M0 0 C0.33 0.66 0.66 1.32 1 2 C-0.07421875 4.27734375 -0.07421875 4.27734375 -1.6875 6.9375 C-2.46673828 8.25041016 -2.46673828 8.25041016 -3.26171875 9.58984375 C-4.97618665 11.96698238 -6.56945192 13.39552055 -9 15 C-7.61219205 11.10993227 -5.7847773 8.03441292 -3.375 4.6875 C-2.74335937 3.80449219 -2.11171875 2.92148437 -1.4609375 2.01171875 C-0.97882812 1.34785156 -0.49671875 0.68398438 0 0 Z " fill="#F4F2F9" transform="translate(887,824)"/>
<path d="M0 0 C-0.33 0.99 -0.66 1.98 -1 3 C-3.29598193 4.08301035 -5.63477442 5.07796291 -8 6 C-9.34013497 6.65288627 -10.67741528 7.31225595 -12 8 C-10.61482883 4.5659298 -9.34555636 3.29977978 -6 1.75 C-5.29875 1.41484375 -4.5975 1.0796875 -3.875 0.734375 C-2 0 -2 0 0 0 Z " fill="#EDE9FA" transform="translate(722,692)"/>
<path d="M0 0 C0.99 0 1.98 0 3 0 C2.46104623 3.7726764 1.00464642 5.68212991 -2 8 C-4.25 7.75 -4.25 7.75 -6 7 C-5.67 6.34 -5.34 5.68 -5 5 C-2.4375 4.375 -2.4375 4.375 0 4 C0 2.68 0 1.36 0 0 Z " fill="#5547CA" transform="translate(532,592)"/>
<path d="M0 0 C0 4.76717802 -3.64285732 7.5960593 -6.8125 10.875 C-7.204375 11.24625 -7.59625 11.6175 -8 12 C-8.66 11.34 -9.32 10.68 -10 10 C-6.7 6.7 -3.4 3.4 0 0 Z " fill="#4434C5" transform="translate(541,563)"/>
<path d="M0 0 C0.99 0.33 1.98 0.66 3 1 C3 1.66 3 2.32 3 3 C3.66 3 4.32 3 5 3 C4.67 5.97 4.34 8.94 4 12 C1.40536581 9.40536581 1.50144452 7.58174655 1 4 C0.68325425 2.66262906 0.35729936 1.32711192 0 0 Z " fill="#6B5BD1" transform="translate(758,575)"/>
<path d="M0 0 C0 3.70411834 -0.75301769 5.078923 -3 8 C-6.1875 9.3125 -6.1875 9.3125 -9 10 C-8.06409496 8.8944811 -7.12620142 7.79064547 -6.1875 6.6875 C-5.66542969 6.07261719 -5.14335938 5.45773437 -4.60546875 4.82421875 C-3.12827531 3.14575321 -1.59960869 1.56117966 0 0 Z " fill="#4735C6" transform="translate(565,539)"/>
<path d="M0 0 C0.33 0.66 0.66 1.32 1 2 C-2.3 4.31 -5.6 6.62 -9 9 C-9.66 8.34 -10.32 7.68 -11 7 C-8.60490662 4.10067643 -6.68754757 3.49831724 -3 3 C-3 2.34 -3 1.68 -3 1 C-2.01 0.67 -1.02 0.34 0 0 Z " fill="#5B49CA" transform="translate(665,520)"/>
<path d="M0 0 C3 2 3 2 5 4 C3.1858073 3.71905418 1.37364999 3.42493567 -0.4375 3.125 C-1.95150391 2.88136719 -1.95150391 2.88136719 -3.49609375 2.6328125 C-4.32238281 2.42398438 -5.14867187 2.21515625 -6 2 C-6.33 1.34 -6.66 0.68 -7 0 C-3.98968256 -0.93423645 -3.13349732 -1.04449911 0 0 Z " fill="#8D73EC" transform="translate(412,754)"/>
<path d="M0 0 C0.33 0 0.66 0 1 0 C2.79172099 6.07806891 3.28545662 10.03241883 1 16 C0.67 16 0.34 16 0 16 C0 10.72 0 5.44 0 0 Z " fill="#6052CC" transform="translate(706,632)"/>
<path d="M0 0 C3.73884332 2.65654657 5.64978174 4.58110387 7 9 C5.02 8.34 3.04 7.68 1 7 C0.67 4.69 0.34 2.38 0 0 Z " fill="#5444C9" transform="translate(723,557)"/>
<path d="M0 0 C1.40907283 2.81814566 0.50872691 4.17277204 -0.4375 7.125 C-0.72496094 8.03507813 -1.01242187 8.94515625 -1.30859375 9.8828125 C-1.53675781 10.58148437 -1.76492188 11.28015625 -2 12 C-4.09375 8.390625 -4.09375 8.390625 -3.25 4.875 C-2 2 -2 2 0 0 Z " fill="#5B4CCA" transform="translate(672,552)"/>
<path d="M0 0 C-3.61257298 2.40838199 -6.74600454 4.08842954 -11 5 C-11 4.01 -11 3.02 -11 2 C-9.73392393 1.46770674 -8.46189588 0.94955456 -7.1875 0.4375 C-6.47980469 0.14746094 -5.77210938 -0.14257812 -5.04296875 -0.44140625 C-3 -1 -3 -1 0 0 Z " fill="#9E6FF9" transform="translate(232,126)"/>
<path d="M0 0 C0 0.33 0 0.66 0 1 C2.97 1.495 2.97 1.495 6 2 C6 2.33 6 2.66 6 3 C4.22950311 3.05410687 2.45853151 3.09284119 0.6875 3.125 C-0.79169922 3.15980469 -0.79169922 3.15980469 -2.30078125 3.1953125 C-5 3 -5 3 -8 1 C-3.375 -1.125 -3.375 -1.125 0 0 Z " fill="#B5ABEA" transform="translate(290,908)"/>
<path d="M0 0 C0.99 0 1.98 0 3 0 C3.33 2.31 3.66 4.62 4 7 C4.66 7 5.32 7 6 7 C5.67 7.99 5.34 8.98 5 10 C1.55783328 7.3401439 1.00495326 4.09711714 0 0 Z " fill="#6758D7" transform="translate(126,801)"/>
<path d="M0 0 C0.66 3.63 1.32 7.26 2 11 C-2.92307692 6.69230769 -2.92307692 6.69230769 -3.3125 3.1875 C-3.209375 2.465625 -3.10625 1.74375 -3 1 C-1 0 -1 0 0 0 Z " fill="#5C4CCD" transform="translate(269,689)"/>
<path d="M0 0 C0.33 0.66 0.66 1.32 1 2 C0.01 3.485 0.01 3.485 -1 5 C-1.66 5 -2.32 5 -3 5 C-3.33 5.99 -3.66 6.98 -4 8 C-6.5625 9.1875 -6.5625 9.1875 -9 10 C-8.06409496 8.8944811 -7.12620142 7.79064547 -6.1875 6.6875 C-5.66542969 6.07261719 -5.14335937 5.45773437 -4.60546875 4.82421875 C-3.12827531 3.14575321 -1.59960869 1.56117966 0 0 Z " fill="#4636C5" transform="translate(505,599)"/>
<path d="M0 0 C3.36591427 2.72478774 4.44226276 6.06856792 6 10 C5.01 10.495 5.01 10.495 4 11 C0 4.5 0 4.5 0 0 Z " fill="#9267F2" transform="translate(889,205)"/>
<path d="M0 0 C2.97 0.33 5.94 0.66 9 1 C9.33 1.99 9.66 2.98 10 4 C6.7 3.67 3.4 3.34 0 3 C0 2.01 0 1.02 0 0 Z " fill="#9D6DF8" transform="translate(750,116)"/>
<path d="M0 0 C1 2 1 2 0.4375 4 C-1.57302108 6.79724672 -3.74418077 7.15065585 -7 8 C-6.02133662 6.85373678 -5.04205413 5.70800212 -4.0625 4.5625 C-3.51722656 3.92441406 -2.97195313 3.28632812 -2.41015625 2.62890625 C-1.63204305 1.73008851 -0.84063472 0.84063472 0 0 Z " fill="#493AC6" transform="translate(668,698)"/>
<path d="M0 0 C0.33 0.66 0.66 1.32 1 2 C-1.65654657 5.73884332 -3.58110387 7.64978174 -8 9 C-7.04270084 7.87411986 -6.08412105 6.7493285 -5.125 5.625 C-4.59132813 4.99851562 -4.05765625 4.37203125 -3.5078125 3.7265625 C-2.38567993 2.44163349 -1.20628025 1.20628025 0 0 Z " fill="#4535C4" transform="translate(524,580)"/>
<path d="M0 0 C0.33 0.99 0.66 1.98 1 3 C1.66 3 2.32 3 3 3 C3.93065133 5.60582371 4.14917407 6.64198224 3.0625 9.25 C2.711875 9.8275 2.36125 10.405 2 11 C0.57741188 7.17679443 -0.24042276 4.08718695 0 0 Z " fill="#604DD5" transform="translate(116,768)"/>
<path d="M0 0 C0.99 0 1.98 0 3 0 C3 3.3 3 6.6 3 10 C0.70366176 6.55549263 0.45983515 4.06187717 0 0 Z " fill="#5646CA" transform="translate(756,565)"/>
<path d="M0 0 C0.721875 0.103125 1.44375 0.20625 2.1875 0.3125 C1.1975 0.6425 0.2075 0.9725 -0.8125 1.3125 C-0.8125 2.3025 -0.8125 3.2925 -0.8125 4.3125 C-3.1225 4.6425 -5.4325 4.9725 -7.8125 5.3125 C-3.50480769 0.38942308 -3.50480769 0.38942308 0 0 Z " fill="#8565ED" transform="translate(336.8125,380.6875)"/>
<path d="M0 0 C0.33 0 0.66 0 1 0 C1.25 7.625 1.25 7.625 -1 11 C-1.33 8.69 -1.66 6.38 -2 4 C-1.34 4 -0.68 4 0 4 C0 2.68 0 1.36 0 0 Z " fill="#926FEC" transform="translate(112,288)"/>
<path d="M0 0 C2.97 0 5.94 0 9 0 C5.91330796 3.08669204 5.08072342 3.44855089 1 4 C0.67 2.68 0.34 1.36 0 0 Z " fill="#CCB1F9" transform="translate(275,114)"/>
<path d="M0 0 C3.68754757 0.49831724 5.60490662 1.10067643 8 4 C6.02 4 4.04 4 2 4 C2 3.34 2 2.68 2 2 C1.01 2.33 0.02 2.66 -1 3 C-0.67 2.01 -0.34 1.02 0 0 Z " fill="#594BCA" transform="translate(549,782)"/>
<path d="M0 0 C0.66 1.32 1.32 2.64 2 4 C0.03533587 5.06775224 -1.96855359 6.06553465 -4 7 C-4.66 6.67 -5.32 6.34 -6 6 C-4.02 4.02 -2.04 2.04 0 0 Z " fill="#4B3DC6" transform="translate(647,719)"/>
<path d="M0 0 C0.33 0.99 0.66 1.98 1 3 C-0.32 4.32 -1.64 5.64 -3 7 C-3.99 6.67 -4.98 6.34 -6 6 C-4.02 4.02 -2.04 2.04 0 0 Z " fill="#4A3CC6" transform="translate(512,592)"/>
<path d="M0 0 C2.97 0.495 2.97 0.495 6 1 C6.33 1.99 6.66 2.98 7 4 C6.34 4.66 5.68 5.32 5 6 C4.34 5.01 3.68 4.02 3 3 C1.68 3 0.36 3 -1 3 C-0.67 2.01 -0.34 1.02 0 0 Z " fill="#6354CD" transform="translate(699,543)"/>
<path d="M0 0 C2.7972908 2.06756277 3.02692273 3.14440371 3.6875 6.6875 C3.790625 7.780625 3.89375 8.87375 4 10 C2 9 2 9 0.875 6.6875 C0 4 0 4 0 0 Z " fill="#A67DFA" transform="translate(750,387)"/>
<path d="M0 0 C0.66 0.33 1.32 0.66 2 1 C0.94124926 4.40312738 -0.00902154 7.01353231 -2 10 C-2.66 9.67 -3.32 9.34 -4 9 C-2.68 6.03 -1.36 3.06 0 0 Z " fill="#9163F5" transform="translate(130,212)"/>
<path d="M0 0 C-1.39332574 3.36720387 -2.9789286 4.9859524 -6 7 C-5.6875 4.625 -5.6875 4.625 -5 2 C-2 0 -2 0 0 0 Z " fill="#5748CC" transform="translate(703,704)"/>
<path d="M0 0 C1 2 1 2 0.375 4.0625 C-1 6 -1 6 -3.625 6.75 C-4.800625 6.87375 -4.800625 6.87375 -6 7 C-4.02 4.69 -2.04 2.38 0 0 Z " fill="#493AC6" transform="translate(467,637)"/>
<path d="M0 0 C0.103125 0.556875 0.20625 1.11375 0.3125 1.6875 C1.13133577 4.44176578 2.45853781 6.58727657 4 9 C0.17053157 7.54744301 -1.12050295 5.57104439 -3 2 C-2.01 1.34 -1.02 0.68 0 0 Z " fill="#604FCD" transform="translate(732,525)"/>
<path d="M0 0 C0.53625 0.226875 1.0725 0.45375 1.625 0.6875 C-1.67049466 2.41014494 -4.70618845 3.98195932 -8.375 4.6875 C-8.375 4.0275 -8.375 3.3675 -8.375 2.6875 C-2.95961538 -0.38942308 -2.95961538 -0.38942308 0 0 Z " fill="#9866F9" transform="translate(218.375,130.3125)"/>
<path d="M0 0 C-1 3 -1 3 -3.4375 4.75 C-4.7059375 5.36875 -4.7059375 5.36875 -6 6 C-6.66 5.67 -7.32 5.34 -8 5 C-3.375 0 -3.375 0 0 0 Z " fill="#5D4ED3" transform="translate(833,878)"/>
<path d="M0 0 C0.99 0.33 1.98 0.66 3 1 C-0.465 3.97 -0.465 3.97 -4 7 C-3.67 5.68 -3.34 4.36 -3 3 C-2.01 2.67 -1.02 2.34 0 2 C0 1.34 0 0.68 0 0 Z " fill="#4A3BC5" transform="translate(480,646)"/>
<path d="M0 0 C2.97 0.495 2.97 0.495 6 1 C5.01 2.485 5.01 2.485 4 4 C1.375 4.1875 1.375 4.1875 -1 4 C-0.67 2.68 -0.34 1.36 0 0 Z " fill="#5C4BCB" transform="translate(671,568)"/>
</svg>
